G04 ================== begin FILE IDENTIFICATION RECORD ==================*
G04 Layout Name:  E:/master_WHU/voltage_control/00volt_ctrl_pcb/pcb/volt_ctrl.brd*
G04 Film Name:    GND*
G04 File Format:  Gerber RS274X*
G04 File Origin:  Cadence Allegro -unreleased*
G04 Origin Date:  Wed Jun 16 10:42:02 2021*
G04 *
G04 Layer:  ETCH/GND*
G04 Layer:  PIN/GND*
G04 Layer:  VIA CLASS/GND*
G04 *
G04 Offset:    (0.0000 0.0000)*
G04 Mirror:    No*
G04 Mode:      Positive*
G04 Rotation:  0*
G04 FullContactRelief:  No*
G04 UndefLineWidth:     0.2032*
G04 ================== end FILE IDENTIFICATION RECORD ====================*
%FSLAX55Y55*MOMM*%
%IR0*IPPOS*OFA0.00000B0.00000*MIA0B0*SFA1.00000B1.00000*%
%ADD11C,.7*%
%ADD13O,1.6X4.4*%
%ADD12O,4.4X1.6*%
%ADD10C,4.*%
%ADD14C,1.6*%
%ADD15C,.4318*%
%ADD19C,1.1068*%
%ADD17C,2.0068*%
%ADD18C,1.8544*%
%ADD16O,1.8544X4.6544*%
G75*
%LPD*%
G75*
G36*
G01X630790Y14699960D02*
X20369210D01*
G02X20374980Y14681430I5J-10162D01*
G03X20279660Y14500000I125017J-181436D01*
G03X20500000Y14279660I220340J0D01*
G03X20681430Y14374980I-6J220337D01*
G02X20699960Y14369210I8368J-5765D01*
G01Y630790D01*
G02X20681430Y625020I-10162J-5D01*
G03X20500000Y720340I-181436J-125017D01*
G03X20279660Y500000I0J-220340D01*
G03X20374980Y318570I220337J6D01*
G02X20369210Y300040I-5765J-8368D01*
G01X630790D01*
G02X625020Y318570I-5J10162D01*
G03X720340Y500000I-125017J181436D01*
G03X500000Y720340I-220340J0D01*
G03X318570Y625020I6J-220337D01*
G02X300040Y630790I-8368J5765D01*
G01Y14369210D01*
G02X318570Y14374980I10162J5D01*
G03X500000Y14279660I181436J125017D01*
G03X720340Y14500000I0J220340D01*
G03X625020Y14681430I-220337J-6D01*
G02X630790Y14699960I5765J8368D01*
G37*
%LPC*%
G75*
G36*
G01X1280000Y1282720D02*
X1560000D01*
G02Y1097280I0J-92720D01*
G01X1280000D01*
G02Y1282720I0J92720D01*
G37*
G36*
G01X12132830Y1010970D02*
G03X12134410Y1027620I-4955J8870D01*
G02X12114660Y1070000I35595J42380D01*
G02X12225340I55340J0D01*
G02X12210190Y1031950I-55342J-6D01*
G03X12213660Y1015590I7376J-6983D01*
G02X12270720Y930000I-35662J-85590D01*
G02X12085280I-92720J0D01*
G02X12132830Y1010970I92714J0D01*
G37*
G36*
G01X4646400Y1146030D02*
G03X4632440Y1144480I-6170J-8071D01*
G02X4590000Y1124660I-42440J35528D01*
G02Y1235340I0J55340D01*
G02X4623600Y1223970I0J-55331D01*
G03X4637560Y1225520I6170J8071D01*
G02X4680000Y1245340I42440J-35528D01*
G02Y1134660I0J-55340D01*
G02X4646400Y1146030I0J55331D01*
G37*
G36*
G01X4651290Y1280450D02*
G03X4635780Y1278900I-7107J-7257D01*
G02X4590000Y1254660I-45780J31110D01*
G02Y1365340I0J55340D01*
G02X4628710Y1349550I0J-55345D01*
G03X4644220Y1351100I7107J7257D01*
G02X4690000Y1375340I45780J-31110D01*
G02Y1264660I0J-55340D01*
G02X4651290Y1280450I0J55345D01*
G37*
G36*
G01Y1420450D02*
G03X4635780Y1418900I-7107J-7257D01*
G02X4590000Y1394660I-45780J31110D01*
G02Y1505340I0J55340D01*
G02X4628710Y1489550I0J-55345D01*
G03X4644220Y1491100I7107J7257D01*
G02X4690000Y1515340I45780J-31110D01*
G02Y1404660I0J-55340D01*
G02X4651290Y1420450I0J55345D01*
G37*
G36*
G01X4646400Y1556030D02*
G03X4632440Y1554480I-6170J-8071D01*
G02X4590000Y1534660I-42440J35528D01*
G02Y1645340I0J55340D01*
G02X4623600Y1633970I0J-55331D01*
G03X4637560Y1635520I6170J8071D01*
G02X4680000Y1655340I42440J-35528D01*
G02Y1544660I0J-55340D01*
G02X4646400Y1556030I0J55331D01*
G37*
G36*
G01X12241840Y3029920D02*
G03X12227840I-7000J-7362D01*
G02X12189680Y3014660I-38160J40083D01*
G02Y3125340I0J55340D01*
G02X12227840Y3110080I0J-55343D01*
G03X12241840I7000J7362D01*
G02X12280000Y3125340I38160J-40083D01*
G02Y3014660I0J-55340D01*
G02X12241840Y3029920I0J55343D01*
G37*
G36*
G01X5932240Y3735750D02*
G03X5947760I7760J6561D01*
G02X5990000Y3755340I42240J-35744D01*
G02X6029090Y3739170I0J-55334D01*
G03X6043440I7175J7195D01*
G02X6082530Y3755340I39090J-39164D01*
G02Y3644660I0J-55340D01*
G02X6043440Y3660830I0J55334D01*
G03X6029090I-7175J-7195D01*
G02X5990000Y3644660I-39090J39164D01*
G02X5947760Y3664250I0J55334D01*
G03X5932240I-7760J-6561D01*
G02X5847760I-42240J35744D01*
G03X5832240I-7760J-6561D01*
G02X5747760I-42240J35744D01*
G03X5732240I-7760J-6561D01*
G02X5690000Y3644660I-42240J35744D01*
G02Y3755340I0J55340D01*
G02X5732240Y3735750I0J-55334D01*
G03X5747760I7760J6561D01*
G02X5832240I42240J-35744D01*
G03X5847760I7760J6561D01*
G02X5932240I42240J-35744D01*
G37*
G36*
G01X8043130Y3743840D02*
G03X8057140Y3745390I6200J8051D01*
G02X8099680Y3765340I42540J-35380D01*
G02X8137840Y3750080I0J-55343D01*
G03X8151840I7000J7362D01*
G02X8190000Y3765340I38160J-40083D01*
G02Y3654660I0J-55340D01*
G02X8151840Y3669920I0J55343D01*
G03X8137840I-7000J-7362D01*
G02X8099680Y3654660I-38160J40083D01*
G02X8065910Y3666160I0J55333D01*
G03X8051900Y3664610I-6200J-8051D01*
G02X8009360Y3644660I-42540J35380D01*
G02X7963160Y3669530I0J55347D01*
G03X7946200I-8480J-5590D01*
G02X7900000Y3644660I-46200J30477D01*
G02X7859410Y3662380I0J55348D01*
G03X7844660Y3662540I-7451J-6906D01*
G02X7804880Y3645670I-39780J38466D01*
G02Y3756350I0J55340D01*
G02X7845470Y3738630I0J-55348D01*
G03X7860220Y3738470I7451J6906D01*
G02X7900000Y3755340I39780J-38466D01*
G02X7946200Y3730470I0J-55347D01*
G03X7963160I8480J5590D01*
G02X8009360Y3755340I46200J-30477D01*
G02X8043130Y3743840I0J-55333D01*
G37*
G36*
G01X14363780Y3733860D02*
G03X14380840Y3735410I8036J6214D01*
G02X14430000Y3765340I49160J-25408D01*
G02Y3654660I0J-55340D01*
G02X14386220Y3676140I-6J55343D01*
G03X14369160Y3674590I-8036J-6214D01*
G02X14320000Y3644660I-49160J25408D01*
G02X14294050Y3651120I0J55351D01*
G03X14280090Y3646470I-4766J-8971D01*
G02X14230000Y3614660I-50090J23532D01*
G02X14180840Y3644590I0J55338D01*
G03X14163780Y3646140I-9024J-4664D01*
G02X14120000Y3624660I-43774J33863D01*
G02X14073530Y3649950I0J55339D01*
G03X14056470I-8530J-5520D01*
G02X14010000Y3624660I-46470J30049D01*
G02Y3735340I0J55340D01*
G02X14056470Y3710050I0J-55339D01*
G03X14073530I8530J5520D01*
G02X14120000Y3735340I46470J-30049D01*
G02X14169160Y3705410I0J-55338D01*
G03X14186220Y3703860I9024J4664D01*
G02X14230000Y3725340I43774J-33863D01*
G02X14255950Y3718880I0J-55351D01*
G03X14269910Y3723530I4766J8971D01*
G02X14320000Y3755340I50090J-23532D01*
G02X14363780Y3733860I6J-55343D01*
G37*
G36*
G01X16498710Y3729550D02*
G03X16514220Y3731100I7107J7257D01*
G02X16560000Y3755340I45780J-31110D01*
G02X16593600Y3743970I0J-55331D01*
G03X16607560Y3745520I6170J8071D01*
G02X16650000Y3765340I42440J-35528D01*
G02Y3654660I0J-55340D01*
G02X16616400Y3666030I0J55331D01*
G03X16602440Y3664480I-6170J-8071D01*
G02X16560000Y3644660I-42440J35528D01*
G02X16521290Y3660450I0J55345D01*
G03X16505780Y3658900I-7107J-7257D01*
G02X16460000Y3634660I-45780J31110D01*
G02X16413530Y3659950I0J55339D01*
G03X16396470I-8530J-5520D01*
G02X16350000Y3634660I-46470J30049D01*
G02X16311290Y3650450I0J55345D01*
G03X16295780Y3648900I-7107J-7257D01*
G02X16250000Y3624660I-45780J31110D01*
G02Y3735340I0J55340D01*
G02X16288710Y3719550I0J-55345D01*
G03X16304220Y3721100I7107J7257D01*
G02X16350000Y3745340I45780J-31110D01*
G02X16396470Y3720050I0J-55339D01*
G03X16413530I8530J5520D01*
G02X16460000Y3745340I46470J-30049D01*
G02X16498710Y3729550I0J-55345D01*
G37*
G36*
G01X3830530Y3747680D02*
G03X3844630Y3746930I7438J6920D01*
G02X3880910Y3760480I36280J-41795D01*
G02X3911950Y3750950I-7J-55338D01*
G03X3925770Y3753260I5697J8414D01*
G02X3970000Y3775340I44230J-33260D01*
G02Y3664660I0J-55340D01*
G02X3938960Y3674190I7J55338D01*
G03X3925140Y3671880I-5697J-8414D01*
G02X3880910Y3649800I-44230J33260D01*
G02X3840380Y3667460I0J55339D01*
G03X3826280Y3668210I-7438J-6920D01*
G02X3790000Y3654660I-36280J41795D01*
G02X3756400Y3666030I0J55331D01*
G03X3742440Y3664480I-6170J-8071D01*
G02X3657560I-42440J35528D01*
G03X3643600Y3666030I-7790J-6521D01*
G02X3610000Y3654660I-33600J43961D01*
G02Y3765340I0J55340D01*
G02X3652440Y3745520I0J-55348D01*
G03X3666400Y3743970I7790J6521D01*
G02X3733600I33600J-43961D01*
G03X3747560Y3745520I6170J8071D01*
G02X3790000Y3765340I42440J-35528D01*
G02X3830530Y3747680I0J-55339D01*
G37*
G36*
G01X12137980Y3740490D02*
G03X12151990Y3740380I7063J7301D01*
G02X12189830Y3755340I37840J-40376D01*
G02X12219090Y3746970I0J-55329D01*
G03X12233100Y3750250I5369J8627D01*
G02X12280150Y3776460I47050J-29125D01*
G02Y3665780I0J-55340D01*
G02X12250890Y3674150I0J55329D01*
G03X12236880Y3670870I-5369J-8627D01*
G02X12189830Y3644660I-47050J29125D01*
G02X12151360Y3660210I-7J55343D01*
G03X12137350Y3660320I-7063J-7301D01*
G02X12099510Y3645360I-37840J40376D01*
G02X12064190Y3658100I0J55330D01*
G03X12050030Y3656930I-6482J-7823D01*
G02X12008220Y3637850I-41810J36269D01*
G02X11960550Y3665080I0J55342D01*
G03X11943770Y3666130I-8746J-5166D01*
G02X11900000Y3644660I-43770J33881D01*
G02Y3755340I0J55340D01*
G02X11947670Y3728110I0J-55342D01*
G03X11964450Y3727060I8746J5166D01*
G02X12008220Y3748530I43770J-33881D01*
G02X12043540Y3735790I0J-55330D01*
G03X12057700Y3736960I6482J7823D01*
G02X12099510Y3756040I41810J-36269D01*
G02X12137980Y3740490I7J-55343D01*
G37*
G36*
G01X12274680Y7059990D02*
G03X12258330Y7060580I-8392J-5729D01*
G02X12215000Y7039660I-43330J34413D01*
G02Y7150340I0J55340D01*
G02X12260690Y7126220I0J-55335D01*
G03X12277040Y7125630I8392J5729D01*
G02X12320370Y7146550I43330J-34413D01*
G02X12359590Y7130250I0J-55334D01*
G03X12373600Y7129870I7205J7167D01*
G02X12410660Y7144120I37068J-41087D01*
G02X12452180Y7125360I0J-55326D01*
G03X12467590Y7125550I7623J6719D01*
G02X12510000Y7145340I42410J-35547D01*
G02Y7034660I0J-55340D01*
G02X12468480Y7053420I0J55326D01*
G03X12453070Y7053230I-7623J-6719D01*
G02X12410660Y7033440I-42410J35547D01*
G02X12371440Y7049740I0J55334D01*
G03X12357430Y7050120I-7205J-7167D01*
G02X12320370Y7035870I-37068J41087D01*
G02X12274680Y7059990I0J55335D01*
G37*
G36*
G01X14452110Y7125630D02*
G03X14467650I7770J6542D01*
G02X14510000Y7145340I42350J-35643D01*
G02X14543600Y7133970I0J-55331D01*
G03X14557560Y7135520I6170J8071D01*
G02X14600000Y7155340I42440J-35528D01*
G02Y7044660I0J-55340D01*
G02X14566400Y7056030I0J55331D01*
G03X14552440Y7054480I-6170J-8071D01*
G02X14510000Y7034660I-42440J35528D01*
G02X14467660Y7054360I0J55349D01*
G03X14452120I-7770J-6542D01*
G02X14409770Y7034650I-42350J35643D01*
G02X14367620Y7054130I0J55341D01*
G03X14352140I-7740J-6581D01*
G02X14310000Y7034660I-42140J35868D01*
G02X14264220Y7058900I0J55350D01*
G03X14248710Y7060450I-8403J-5707D01*
G02X14210000Y7044660I-38710J39555D01*
G02Y7155340I0J55340D01*
G02X14255780Y7131100I0J-55350D01*
G03X14271290Y7129550I8403J5707D01*
G02X14310000Y7145340I38710J-39555D01*
G02X14352150Y7125860I0J-55341D01*
G03X14367630I7740J6581D01*
G02X14409770Y7145330I42140J-35868D01*
G02X14452110Y7125630I0J-55349D01*
G37*
G36*
G01X10117770Y7141880D02*
G03X10134600Y7141640I8496J5573D01*
G02X10180000Y7165340I45400J-31634D01*
G02X10218710Y7149550I0J-55345D01*
G03X10234220Y7151100I7107J7257D01*
G02X10280000Y7175340I45780J-31110D01*
G02Y7064660I0J-55340D01*
G02X10241290Y7080450I0J55345D01*
G03X10225780Y7078900I-7107J-7257D01*
G02X10180000Y7054660I-45780J31110D01*
G02X10133740Y7079630I0J55336D01*
G03X10116910Y7079870I-8496J-5573D01*
G02X10071510Y7056170I-45400J31634D01*
G02X10029150Y7075900I0J55338D01*
G03X10013400Y7075670I-7781J-6535D01*
G02X9970000Y7054660I-43400J34320D01*
G02X9927760Y7074250I0J55334D01*
G03X9912240I-7760J-6561D01*
G02X9870000Y7054660I-42240J35744D01*
G02Y7165340I0J55340D01*
G02X9912240Y7145750I0J-55334D01*
G03X9927760I7760J6561D01*
G02X9970000Y7165340I42240J-35744D01*
G02X10012360Y7145610I0J-55338D01*
G03X10028110Y7145840I7781J6535D01*
G02X10071510Y7166850I43400J-34320D01*
G02X10117770Y7141880I0J-55336D01*
G37*
G36*
G01X5766470Y7150050D02*
G03X5783530I8530J5520D01*
G02X5830000Y7175340I46470J-30049D01*
G02X5868710Y7159550I0J-55345D01*
G03X5884220Y7161100I7107J7257D01*
G02X5930000Y7185340I45780J-31110D01*
G02Y7074660I0J-55340D01*
G02X5891290Y7090450I0J55345D01*
G03X5875780Y7088900I-7107J-7257D01*
G02X5830000Y7064660I-45780J31110D01*
G02X5783530Y7089950I0J55339D01*
G03X5766470I-8530J-5520D01*
G02X5720000Y7064660I-46470J30049D01*
G02X5674220Y7088900I0J55350D01*
G03X5658710Y7090450I-8403J-5707D01*
G02X5620000Y7074660I-38710J39555D01*
G02X5576220Y7096140I-6J55343D01*
G03X5559160Y7094590I-8036J-6214D01*
G02X5510000Y7064660I-49160J25408D01*
G02Y7175340I0J55340D01*
G02X5553780Y7153860I6J-55343D01*
G03X5570840Y7155410I8036J6214D01*
G02X5620000Y7185340I49160J-25408D01*
G02X5665780Y7161100I0J-55350D01*
G03X5681290Y7159550I8403J5707D01*
G02X5720000Y7175340I38710J-39555D01*
G02X5766470Y7150050I0J-55339D01*
G37*
G36*
G01X3497760Y7114250D02*
G03X3482240I-7760J-6561D01*
G02X3440000Y7094660I-42240J35744D01*
G02Y7205340I0J55340D01*
G02X3482240Y7185750I0J-55334D01*
G03X3497760I7760J6561D01*
G02X3540000Y7205340I42240J-35744D01*
G02X3589160Y7175410I0J-55338D01*
G03X3606220Y7173860I9024J4664D01*
G02X3650000Y7195340I43774J-33863D01*
G02X3692240Y7175750I0J-55334D01*
G03X3707760I7760J6561D01*
G02X3750000Y7195340I42240J-35744D01*
G02X3792440Y7175520I0J-55348D01*
G03X3806400Y7173970I7790J6521D01*
G02X3840000Y7185340I33600J-43961D01*
G02Y7074660I0J-55340D01*
G02X3797560Y7094480I0J55348D01*
G03X3783600Y7096030I-7790J-6521D01*
G02X3750000Y7084660I-33600J43961D01*
G02X3707760Y7104250I0J55334D01*
G03X3692240I-7760J-6561D01*
G02X3650000Y7084660I-42240J35744D01*
G02X3600840Y7114590I0J55338D01*
G03X3583780Y7116140I-9024J-4664D01*
G02X3540000Y7094660I-43774J33863D01*
G02X3497760Y7114250I0J55334D01*
G37*
G36*
G01X7973990Y7165200D02*
G03X7984840Y7174500I727J10131D01*
G02X8040000Y7225340I55160J-4504D01*
G02Y7114660I0J-55340D01*
G02X8036010Y7114800I-56J55342D01*
G03X8025160Y7105500I-727J-10131D01*
G02X7970000Y7054660I-55160J4504D01*
G02X7931840Y7069920I0J55343D01*
G03X7917840I-7000J-7362D01*
G02X7879680Y7054660I-38160J40083D01*
G02X7837570Y7074090I0J55347D01*
G03X7822110I-7730J-6589D01*
G02X7780000Y7054660I-42110J35917D01*
G02Y7165340I0J55340D01*
G02X7822110Y7145910I0J-55347D01*
G03X7837570I7730J6589D01*
G02X7879680Y7165340I42110J-35917D01*
G02X7917840Y7150080I0J-55343D01*
G03X7931840I7000J7362D01*
G02X7970000Y7165340I38160J-40083D01*
G02X7973990Y7165200I56J-55342D01*
G37*
G36*
G01X7518680Y10150700D02*
G03X7509370Y10164660I-9421J3801D01*
G02X7454660Y10220000I634J55340D01*
G02X7565340I55340J0D01*
G02X7561320Y10199300I-55339J7D01*
G03X7570630Y10185340I9421J-3801D01*
G02X7625340Y10130000I-634J-55340D01*
G02X7514660I-55340J0D01*
G02X7518680Y10150700I55339J-7D01*
G37*
G36*
G01X14243850Y10180540D02*
G03X14237650Y10196060I-8469J5615D01*
G02X14194660Y10250000I12345J53940D01*
G02X14305340I55340J0D01*
G02X14296150Y10219460I-55340J0D01*
G03X14302350Y10203940I8469J-5615D01*
G02X14345340Y10150000I-12345J-53940D01*
G02X14234660I-55340J0D01*
G02X14243850Y10180540I55340J0D01*
G37*
G36*
G01X18038470Y10232340D02*
G03X18048630Y10244820I270J10156D01*
G02X18047160Y10257500I53871J12671D01*
G02X18102500Y10202160I55340J0D01*
G02X18101050Y10202180I38J55339D01*
G03X18090890Y10189700I-270J-10156D01*
G02X18092360Y10177020I-53871J-12671D01*
G02X18037020Y10232360I-55340J0D01*
G02X18038470Y10232340I-38J-55339D01*
G37*
G36*
G01X11574470Y10393690D02*
G03X11591020Y10395750I7558J6788D01*
G02X11640000Y10425340I48980J-25743D01*
G02X11682240Y10405750I0J-55334D01*
G03X11697760I7760J6561D01*
G02X11740000Y10425340I42240J-35744D01*
G02Y10314660I0J-55340D01*
G02X11697760Y10334250I0J55334D01*
G03X11682240I-7760J-6561D01*
G02X11640000Y10314660I-42240J35744D01*
G02X11598840Y10333000I-6J55343D01*
G03X11582290Y10330940I-7558J-6788D01*
G02X11533310Y10301350I-48980J25743D01*
G02Y10412030I0J55340D01*
G02X11574470Y10393690I6J-55343D01*
G37*
G36*
G01X11359910Y10376470D02*
G03X11345950Y10381120I-9194J-4321D01*
G02X11320000Y10374660I-25950J48891D01*
G02Y10485340I0J55340D01*
G02X11370090Y10453530I0J-55342D01*
G03X11384050Y10448880I9194J4321D01*
G02X11410000Y10455340I25950J-48891D01*
G02Y10344660I0J-55340D01*
G02X11359910Y10376470I0J55342D01*
G37*
G36*
G01X13709270Y10448450D02*
G03X13724010Y10450780I6293J7977D01*
G02X13770000Y10475340I45990J-30779D01*
G02X13807060Y10461100I0J-55345D01*
G03X13822270Y10462950I6800J7546D01*
G02X13868090Y10487250I45820J-31049D01*
G02Y10376570I0J-55340D01*
G02X13831030Y10390810I0J55345D01*
G03X13815820Y10388960I-6800J-7546D01*
G02X13770000Y10364660I-45820J31049D01*
G02X13735730Y10376550I0J55332D01*
G03X13720990Y10374220I-6293J-7977D01*
G02X13675000Y10349660I-45990J30779D01*
G02X13632870Y10369120I0J55335D01*
G03X13618130Y10369890I-7734J-6588D01*
G02X13580000Y10354660I-38130J40116D01*
G02X13536220Y10376140I-6J55343D01*
G03X13519160Y10374590I-8036J-6214D01*
G02X13470000Y10344660I-49160J25408D01*
G02Y10455340I0J55340D01*
G02X13513780Y10433860I6J-55343D01*
G03X13530840Y10435410I8036J6214D01*
G02X13580000Y10465340I49160J-25408D01*
G02X13622130Y10445880I0J-55335D01*
G03X13636870Y10445110I7734J6588D01*
G02X13675000Y10460340I38130J-40116D01*
G02X13709270Y10448450I0J-55332D01*
G37*
G36*
G01X16026460Y10390090D02*
G03X16031120Y10404050I-4315J9198D01*
G02X16024660Y10429990I48878J25947D01*
G02X16080000Y10485330I55340J0D01*
G02X16123430Y10464280I0J-55327D01*
G03X16140270Y10465610I7975J6297D01*
G02X16188560Y10493920I48290J-27031D01*
G02Y10383240I0J-55340D01*
G02X16145130Y10404290I0J55327D01*
G03X16128290Y10402960I-7975J-6297D01*
G02X16103530Y10379900I-48291J27029D01*
G03X16098870Y10365940I4315J-9198D01*
G02X16105330Y10340000I-48878J-25947D01*
G02X16079930Y10293460I-55337J0D01*
G03X16076820Y10279500I5490J-8550D01*
G02X16085340Y10250000I-46811J-29500D01*
G02X16042350Y10196060I-55335J0D01*
G03X16036150Y10180540I2269J-9905D01*
G02X16045340Y10150000I-46150J-30540D01*
G02X15934660I-55340J0D01*
G02X15977650Y10203940I55335J0D01*
G03X15983850Y10219460I-2269J9905D01*
G02X15974660Y10250000I46150J30540D01*
G02X16000060Y10296540I55337J0D01*
G03X16003170Y10310500I-5490J8550D01*
G02X15994650Y10340000I46811J29500D01*
G02X16026460Y10390090I55342J0D01*
G37*
G36*
G01X8230840Y10414590D02*
G03X8213780Y10416140I-9024J-4664D01*
G02X8170000Y10394660I-43774J33863D01*
G02Y10505340I0J55340D01*
G02X8219160Y10475410I0J-55338D01*
G03X8236220Y10473860I9024J4664D01*
G02X8280000Y10495340I43774J-33863D01*
G02Y10384660I0J-55340D01*
G02X8230840Y10414590I0J55338D01*
G37*
G36*
G01X18037010Y10468320D02*
G03X18047170Y10478330I0J10161D01*
G02X18102500Y10532840I55330J-826D01*
G02X18157840Y10477500I0J-55340D01*
G02X18102510Y10422160I-55340J0D01*
G03X18092350Y10412150I0J-10161D01*
G02X18037020Y10357640I-55330J826D01*
G02X17995600Y10376280I0J55340D01*
G03X17979000Y10374270I-7606J-6733D01*
G02X17930000Y10344660I-49000J25739D01*
G02X17880840Y10374590I0J55338D01*
G03X17863780Y10376140I-9024J-4664D01*
G02X17820000Y10354660I-43774J33863D01*
G02X17773530Y10379950I0J55339D01*
G03X17756470I-8530J-5520D01*
G02X17710000Y10354660I-46470J30049D01*
G02Y10465340I0J55340D01*
G02X17756470Y10440050I0J-55339D01*
G03X17773530I8530J5520D01*
G02X17820000Y10465340I46470J-30049D01*
G02X17869160Y10435410I0J-55338D01*
G03X17886220Y10433860I9024J4664D01*
G02X17930000Y10455340I43774J-33863D01*
G02X17971420Y10436700I0J-55340D01*
G03X17988020Y10438710I7606J6733D01*
G02X18037010Y10468320I48996J-25732D01*
G37*
G36*
G01X15644810Y10433940D02*
G03X15633950Y10444800I-10133J727D01*
G02X15630000Y10444660I-3934J55201D01*
G02X15685340Y10500000I0J55340D01*
G02X15685200Y10496050I-55341J-16D01*
G03X15696060Y10485190I10132J-728D01*
G02X15700010Y10485330I3934J-55201D01*
G02X15755350Y10429990I0J-55340D01*
G02X15744270Y10396770I-55340J0D01*
G03X15745910Y10382860I8129J-6093D01*
G02X15765900Y10340280I-35354J-42580D01*
G02X15754230Y10306290I-55335J0D01*
G03X15755700Y10292290I8020J-6235D01*
G02X15775340Y10250000I-35711J-42290D01*
G02X15764690Y10217360I-55342J0D01*
G03X15769340Y10201850I8204J-5992D01*
G02X15805340Y10150000I-19339J-51850D01*
G02X15694660I-55340J0D01*
G02X15705310Y10182640I55342J0D01*
G03X15700660Y10198150I-8204J5992D01*
G02X15664660Y10250000I19339J51850D01*
G02X15676330Y10283990I55335J0D01*
G03X15674860Y10297990I-8020J6235D01*
G02X15655220Y10340280I35711J42290D01*
G02X15666300Y10373500I55340J0D01*
G03X15664660Y10387410I-8129J6093D01*
G02X15644670Y10429990I35354J42580D01*
G02X15644810Y10433940I55341J16D01*
G37*
G36*
G01X7831360Y10528930D02*
G03X7830670Y10543860I-7220J7147D01*
G02X7810910Y10586250I35588J42390D01*
G02X7921590I55340J0D01*
G02X7905580Y10547320I-55336J0D01*
G03X7906270Y10532390I7220J-7147D01*
G02X7926030Y10490000I-35588J-42390D01*
G02X7815350I-55340J0D01*
G02X7831360Y10528930I55336J0D01*
G37*
G36*
G01X7483940Y10805200D02*
G03X7494800Y10816060I727J10133D01*
G02X7494660Y10820000I55200J3934D01*
G02X7550000Y10875340I55340J0D01*
G02X7596470Y10850050I0J-55339D01*
G03X7613530I8530J5520D01*
G02X7660000Y10875340I46470J-30049D01*
G02Y10764660I0J-55340D01*
G02X7613530Y10789950I0J55339D01*
G03X7596470I-8530J-5520D01*
G02X7550000Y10764660I-46470J30049D01*
G02X7546060Y10764800I-6J55340D01*
G03X7535200Y10753940I-727J-10133D01*
G02X7535340Y10750000I-55200J-3934D01*
G02X7480000Y10805340I-55340J0D01*
G02X7483940Y10805200I6J-55340D01*
G37*
G36*
G01X4361930Y13732310D02*
G03X4366880Y13747820I-3315J9603D01*
G02X4356560Y13780000I45012J32180D01*
G02X4467240I55340J0D01*
G02X4429970Y13727690I-55345J0D01*
G03X4425020Y13712180I3315J-9603D01*
G02X4435340Y13680000I-45012J-32180D01*
G02X4324660I-55340J0D01*
G02X4361930Y13732310I55345J0D01*
G37*
G36*
G01X6343320Y14380550D02*
G03X6356000Y14392550I2766J9777D01*
G02X6354660Y14404640I53998J12104D01*
G02X6465340I55340J0D01*
G02X6411470Y14349320I-55340J0D01*
G03X6402940Y14334090I274J-10157D01*
G02X6416340Y14284000I-86939J-50095D01*
G02X6316000Y14384340I-100340J0D01*
G02X6343320Y14380550I3J-100340D01*
G37*
G36*
G01X1629660Y1520000D02*
Y1800000D01*
G02X1730000Y1900340I100340J0D01*
G02X1820960Y1842360I0J-100340D01*
G03X1839450Y1842520I9209J4293D01*
G02X1890000Y1875340I50550J-22519D01*
G02Y1764660I0J-55340D01*
G02X1848180Y1783760I0J55333D01*
G03X1830340Y1777110I-7680J-6653D01*
G01Y1520000D01*
G02X1629660I-100340J0D01*
G37*
G36*
G01X14371630Y3470070D02*
G02X14320000Y3434660I-51630J19935D01*
G02Y3545340I0J55340D01*
G02X14361310Y3526820I0J-55332D01*
G03X14378370Y3529930I7580J6764D01*
G02X14430000Y3565340I51630J-19935D01*
G02Y3454660I0J-55340D01*
G02X14388690Y3473180I0J55332D01*
G03X14371630Y3470070I-7580J-6764D01*
G37*
G36*
G01X16597500Y3492490D02*
G02X16594660Y3510000I52502J17501D01*
G02X16650000Y3454660I55340J0D01*
G02X16626460Y3459920I8J55338D01*
G03X16612500Y3447510I-4322J-9194D01*
G02X16615340Y3430000I-52502J-17501D01*
G02X16560000Y3485340I-55340J0D01*
G02X16583540Y3480080I-8J-55338D01*
G03X16597500Y3492490I4322J9194D01*
G37*
G36*
G01X6025250Y3551940D02*
G02X6024660Y3560000I54759J8060D01*
G02X6080000Y3504660I55340J0D01*
G02X6058710Y3508920I0J55330D01*
G03X6044750Y3498060I-3909J-9378D01*
G02X6045340Y3490000I-54759J-8060D01*
G02X5990000Y3545340I-55340J0D01*
G02X6011290Y3541080I0J-55330D01*
G03X6025250Y3551940I3909J9378D01*
G37*
G36*
G01X8145250D02*
G02X8144660Y3560000I54759J8060D01*
G02X8200000Y3504660I55340J0D01*
G02X8178710Y3508920I0J55330D01*
G03X8164750Y3498060I-3909J-9378D01*
G02X8165340Y3490000I-54759J-8060D01*
G02X8110000Y3545340I-55340J0D01*
G02X8131290Y3541080I0J-55330D01*
G03X8145250Y3551940I3909J9378D01*
G37*
G36*
G01X12225250D02*
G02X12224660Y3560000I54759J8060D01*
G02X12280000Y3504660I55340J0D01*
G02X12258710Y3508920I0J55330D01*
G03X12244750Y3498060I-3909J-9378D01*
G02X12245340Y3490000I-54759J-8060D01*
G02X12190000Y3545340I-55340J0D01*
G02X12211290Y3541080I0J-55330D01*
G03X12225250Y3551940I3909J9378D01*
G37*
G36*
G01X4240070Y3533450D02*
G02X4214660Y3580000I29934J46550D01*
G02X4325340I55340J0D01*
G02X4316830Y3550510I-55351J0D01*
G03X4319930Y3536550I8595J-5416D01*
G02X4345340Y3490000I-29934J-46550D01*
G02X4319810Y3443370I-55349J0D01*
G03X4316710Y3429360I5471J-8558D01*
G02X4325340Y3399680I-46722J-29680D01*
G02X4300490Y3353500I-55334J0D01*
G03X4302040Y3335700I5598J-8480D01*
G02X4335340Y3284940I-22037J-50760D01*
G02X4316930Y3243730I-55328J0D01*
G03X4318480Y3227450I6779J-7568D01*
G02X4345340Y3180000I-28482J-47450D01*
G02X4234660I-55340J0D01*
G02X4253070Y3221210I55328J0D01*
G03X4251520Y3237490I-6779J7568D01*
G02X4224660Y3284940I28482J47450D01*
G02X4249510Y3331120I55334J0D01*
G03X4247960Y3348920I-5598J8480D01*
G02X4214660Y3399680I22037J50760D01*
G02X4240190Y3446310I55349J0D01*
G03X4243290Y3460320I-5471J8558D01*
G02X4234660Y3490000I46722J29680D01*
G02X4243170Y3519490I55351J0D01*
G03X4240070Y3533450I-8595J5416D01*
G37*
G36*
G01X10172240Y3735750D02*
G03X10187760I7760J6561D01*
G02X10230000Y3755340I42240J-35744D01*
G02Y3644660I0J-55340D01*
G02X10187760Y3664250I0J55334D01*
G03X10172240I-7760J-6561D01*
G02X10130000Y3644660I-42240J35744D01*
G02X10087620Y3664410I0J55345D01*
G03X10072060I-7780J-6531D01*
G02X10029680Y3644660I-42380J35595D01*
G02X9987130Y3664610I0J55351D01*
G03X9970170Y3662530I-7811J-6495D01*
G02X9920310Y3631200I-49860J24010D01*
G02X9870160Y3663140I0J55341D01*
G03X9853050Y3665230I-9207J-4296D01*
G02X9810000Y3644660I-43050J34764D01*
G02Y3755340I0J55340D01*
G02X9860150Y3723400I0J-55341D01*
G03X9877260Y3721310I9207J4296D01*
G02X9920310Y3741880I43050J-34764D01*
G02X9962860Y3721930I0J-55351D01*
G03X9979820Y3724010I7811J6495D01*
G02X10029680Y3755340I49860J-24010D01*
G02X10072060Y3735590I0J-55345D01*
G03X10087620I7780J6531D01*
G02X10130000Y3755340I42380J-35595D01*
G02X10172240Y3735750I0J-55334D01*
G37*
G36*
G01X9918920Y6558710D02*
G02X9914660Y6580000I51070J21290D01*
G02X9970000Y6524660I55340J0D01*
G02X9961940Y6525250I0J55349D01*
G03X9951080Y6511290I-1482J-10051D01*
G02X9955340Y6490000I-51070J-21290D01*
G02X9900000Y6545340I-55340J0D01*
G02X9908060Y6544750I0J-55349D01*
G03X9918920Y6558710I1482J10051D01*
G37*
G36*
G01X19068920D02*
G02X19064660Y6580000I51070J21290D01*
G02X19120000Y6524660I55340J0D01*
G02X19111940Y6525250I0J55349D01*
G03X19101080Y6511290I-1482J-10051D01*
G02X19105340Y6490000I-51070J-21290D01*
G02X19050000Y6545340I-55340J0D01*
G02X19058060Y6544750I0J-55349D01*
G03X19068920Y6558710I1482J10051D01*
G37*
G36*
G01X3527500Y6652490D02*
G02X3524660Y6670000I52502J17501D01*
G02X3580000Y6614660I55340J0D01*
G02X3556460Y6619920I8J55338D01*
G03X3542500Y6607510I-4322J-9194D01*
G02X3545340Y6590000I-52502J-17501D01*
G02X3490000Y6645340I-55340J0D01*
G02X3513540Y6640080I-8J-55338D01*
G03X3527500Y6652490I4322J9194D01*
G37*
G36*
G01X7917500Y6752490D02*
G02X7914660Y6770000I52502J17501D01*
G02X7970000Y6714660I55340J0D01*
G02X7946460Y6719920I8J55338D01*
G03X7932500Y6707510I-4322J-9194D01*
G02X7935340Y6690000I-52502J-17501D01*
G02X7915750Y6647760I-55334J0D01*
G03Y6632240I6561J-7760D01*
G02X7935340Y6590000I-35744J-42240D01*
G02X7824660I-55340J0D01*
G02X7844250Y6632240I55334J0D01*
G03Y6647760I-6561J7760D01*
G02X7824660Y6690000I35744J42240D01*
G02X7880000Y6745340I55340J0D01*
G02X7903540Y6740080I-8J-55338D01*
G03X7917500Y6752490I4322J9194D01*
G37*
G36*
G01X10147500D02*
G02X10144660Y6770000I52502J17501D01*
G02X10200000Y6714660I55340J0D01*
G02X10176460Y6719920I8J55338D01*
G03X10162500Y6707510I-4322J-9194D01*
G02X10165340Y6690000I-52502J-17501D01*
G02X10110000Y6745340I-55340J0D01*
G02X10133540Y6740080I-8J-55338D01*
G03X10147500Y6752490I4322J9194D01*
G37*
G36*
G01X12357500D02*
G02X12354660Y6770000I52502J17501D01*
G02X12410000Y6714660I55340J0D01*
G02X12386460Y6719920I8J55338D01*
G03X12372500Y6707510I-4322J-9194D01*
G02X12375340Y6690000I-52502J-17501D01*
G02X12320000Y6745340I-55340J0D01*
G02X12343540Y6740080I-8J-55338D01*
G03X12357500Y6752490I4322J9194D01*
G37*
G36*
G01X16603530Y7120050D02*
G02X16650000Y7145340I46470J-30049D01*
G02X16691310Y7126820I0J-55332D01*
G03X16708370Y7129930I7580J6764D01*
G02X16760000Y7165340I51630J-19935D01*
G02Y7054660I0J-55340D01*
G02X16718690Y7073180I0J55332D01*
G03X16701630Y7070070I-7580J-6764D01*
G02X16650000Y7034660I-51630J19935D01*
G02X16603530Y7059950I0J55339D01*
G03X16586470I-8530J-5520D01*
G02X16540000Y7034660I-46470J30049D01*
G02X16496220Y7056140I-6J55343D01*
G03X16479160Y7054590I-8036J-6214D01*
G02X16430000Y7024660I-49160J25408D01*
G02X16383530Y7049950I0J55339D01*
G03X16366470I-8530J-5520D01*
G02X16320000Y7024660I-46470J30049D01*
G02Y7135340I0J55340D01*
G02X16366470Y7110050I0J-55339D01*
G03X16383530I8530J5520D01*
G02X16430000Y7135340I46470J-30049D01*
G02X16473780Y7113860I6J-55343D01*
G03X16490840Y7115410I8036J6214D01*
G02X16540000Y7145340I49160J-25408D01*
G02X16586470Y7120050I0J-55339D01*
G03X16603530I8530J5520D01*
G37*
G36*
G01X3379920Y10196460D02*
G02X3374660Y10220000I50078J23548D01*
G02X3430000Y10164660I55340J0D01*
G02X3412490Y10167500I-9J55342D01*
G03X3400080Y10153540I-3216J-9638D01*
G02X3405340Y10130000I-50078J-23548D01*
G02X3350000Y10185340I-55340J0D01*
G02X3367510Y10182500I9J-55342D01*
G03X3379920Y10196460I3216J9638D01*
G37*
G36*
G01X3374760Y10453250D02*
G02X3430000Y10505340I55240J-3245D01*
G02Y10394660I0J-55340D01*
G02X3417650Y10396050I-24J55343D01*
G03X3405240Y10386750I-2269J-9903D01*
G02X3350000Y10334660I-55240J3245D01*
G02X3307760Y10354250I0J55334D01*
G03X3292240I-7760J-6561D01*
G02X3250000Y10334660I-42240J35744D01*
G02X3198370Y10370070I0J55345D01*
G03X3181310Y10373180I-9480J-3654D01*
G02X3140000Y10354660I-41310J36812D01*
G02Y10465340I0J55340D01*
G02X3191630Y10429930I0J-55345D01*
G03X3208690Y10426820I9480J3654D01*
G02X3250000Y10445340I41310J-36812D01*
G02X3292240Y10425750I0J-55334D01*
G03X3307760I7760J6561D01*
G02X3350000Y10445340I42240J-35744D01*
G02X3362350Y10443950I24J-55343D01*
G03X3374760Y10453250I2269J9903D01*
G37*
G36*
G01X5375430Y10512510D02*
G03X5390940Y10515610I6505J7804D01*
G02X5440000Y10545340I49060J-25614D01*
G02Y10434660I0J-55340D01*
G02X5404570Y10447490I0J55335D01*
G03X5389060Y10444390I-6505J-7804D01*
G02X5340000Y10414660I-49060J25614D01*
G02X5296220Y10436140I-6J55343D01*
G03X5279160Y10434590I-8036J-6214D01*
G02X5230000Y10404660I-49160J25408D01*
G02X5204050Y10411120I0J55351D01*
G03X5190090Y10406470I-4766J-8971D01*
G02X5140000Y10374660I-50090J23532D01*
G02X5087500Y10412510I0J55335D01*
G03X5068880Y10414060I-9642J-3210D01*
G02X5020000Y10384660I-48880J25934D01*
G02Y10495340I0J55340D01*
G02X5072500Y10457490I0J-55335D01*
G03X5091120Y10455940I9642J3210D01*
G02X5140000Y10485340I48880J-25934D01*
G02X5165950Y10478880I0J-55351D01*
G03X5179910Y10483530I4766J8971D01*
G02X5230000Y10515340I50090J-23532D01*
G02X5273780Y10493860I6J-55343D01*
G03X5290840Y10495410I8036J6214D01*
G02X5340000Y10525340I49160J-25408D01*
G02X5375430Y10512510I0J-55335D01*
G37*
G36*
G01X5919030Y13399240D02*
G03X5934810Y13401060I7164J7201D01*
G02X5981750Y13427090I46940J-29309D01*
G02X6037090Y13371750I0J-55340D01*
G02X6036350Y13362740I-55339J10D01*
G03X6050040Y13351620I10024J-1646D01*
G02X6070000Y13355340I19948J-51622D01*
G02X6014660Y13300000I0J-55340D01*
G02X6015400Y13309010I55339J-10D01*
G03X6001710Y13320130I-10024J1646D01*
G02X5981750Y13316410I-19948J51622D01*
G02X5942720Y13332510I-7J55343D01*
G03X5926940Y13330690I-7164J-7201D01*
G02X5880000Y13304660I-46940J29309D01*
G02Y13415340I0J55340D01*
G02X5919030Y13399240I7J-55343D01*
G37*
G36*
G01X12545040Y13536460D02*
G02X12600000Y13585340I54960J-6458D01*
G02Y13474660I0J-55340D01*
G02X12562020Y13489750I0J55341D01*
G03X12544960Y13483540I-6969J-7393D01*
G02X12490000Y13434660I-54960J6458D01*
G02Y13545340I0J55340D01*
G02X12527980Y13530250I0J-55341D01*
G03X12545040Y13536460I6969J7393D01*
G37*
G54D19*
X15023600Y9616400D03*
X4642500Y4937500D03*
X8782500Y4137500D03*
X5230000Y8370000D03*
X16150000Y12630000D03*
X6612500Y8002500D03*
X6500000Y5200000D03*
X6640000Y5570000D03*
X3190000Y8920000D03*
X6160000Y13500000D03*
X4440000Y13390000D03*
X1580000Y12620000D03*
X13102500Y8442500D03*
X5580000Y6590000D03*
X10962500Y7542500D03*
X8702500Y8442500D03*
X10822500Y4107500D03*
X3140000Y9920000D03*
X2562710Y12707290D03*
X6662500Y5032500D03*
X6428100Y13700000D03*
X7090000Y14284000D03*
X12760000Y5300000D03*
X3220000Y13180000D03*
X2350000Y13130000D03*
X3110000Y13340000D03*
X2460000Y12840000D03*
X4390000Y13510000D03*
X4642500Y4027500D03*
X8320000Y5870000D03*
X10822500Y5022500D03*
X6330000Y7554360D03*
X3320000Y8380000D03*
X2472500Y4487500D03*
X5271980Y7930000D03*
X3350000Y13000000D03*
X13102500Y7527500D03*
X15242500Y8472500D03*
X6280000Y13620000D03*
X2380000Y12990000D03*
X6612500Y7567500D03*
Y8462500D03*
X6560000Y13800000D03*
X8702500Y8007500D03*
X6662500Y4587500D03*
X6960000Y14163360D03*
X3295000Y7665000D03*
X2472500Y5437500D03*
X5760000Y13300000D03*
X8720000Y5530000D03*
X8782500Y4567500D03*
X4642500Y4482500D03*
Y5437500D03*
X12912500Y4547500D03*
X15242500Y7507500D03*
X6662500Y4162500D03*
X6790000Y13909360D03*
X8782500Y5002500D03*
X13102500Y7977500D03*
X3260000Y7940000D03*
X5423040Y7700000D03*
X2472500Y4947500D03*
X12670000Y13650000D03*
X15194010Y8954010D03*
X12380000Y13348100D03*
X2472500Y4037500D03*
X13050000Y8880000D03*
X8673020Y8970000D03*
X10910000Y9220000D03*
X8702500Y7567500D03*
X10822500Y4547500D03*
X15242500Y8007500D03*
X12950000Y5030000D03*
X10962500Y8012500D03*
X12912500Y4082500D03*
X10370000Y5880000D03*
X6230000Y5870000D03*
X10962500Y8442500D03*
X1860000Y9350000D03*
X4000000Y9310000D03*
X17402500Y8472500D03*
X15032500Y5587500D03*
X12819580Y13670000D03*
X8602500Y5230000D03*
X13040000Y14284000D03*
X15032500Y4127500D03*
Y5052500D03*
X17312500Y8902500D03*
X17200000Y5100000D03*
X12920000Y13900000D03*
X4050000Y5890000D03*
X15032500Y4577500D03*
X17402500Y7972500D03*
X12580000Y9260000D03*
X12940000Y14160000D03*
X18250000Y12690000D03*
X3520000Y12620000D03*
X17402500Y7517500D03*
X17252500Y4607500D03*
Y5572500D03*
X8110000Y9290000D03*
X7610000Y12580000D03*
X5635000Y10515000D03*
X17252500Y4132500D03*
X16770000Y9320000D03*
X12210000Y6580000D03*
X10130000Y3490000D03*
X5850000Y11970000D03*
X4080000Y7190000D03*
X8490000Y8670000D03*
X14870000Y5170000D03*
X12656250Y3856250D03*
X14963750Y7306250D03*
X6453750Y3876250D03*
X14380000Y11930000D03*
X16413750Y10606250D03*
X17156250Y7296250D03*
X12699060Y5120000D03*
X4330000Y8670000D03*
X12180000Y11890000D03*
X6380000Y8710000D03*
X9983750Y10586250D03*
X5470000Y12620000D03*
X16477360Y11893130D03*
X13930000Y12640000D03*
X6222500Y7660000D03*
X7910000Y11900000D03*
X14210000Y6490000D03*
X10663750Y7296250D03*
X14795000Y7155000D03*
X1967500Y3824800D03*
X3820000Y11950000D03*
X18463750Y10606250D03*
X17172500Y8610000D03*
X8312500Y7460000D03*
X14256250Y10616250D03*
X1830000Y11950000D03*
X10680000Y5290000D03*
X8590000Y3876250D03*
X14813750Y3886250D03*
X4142500Y7630000D03*
X18490000Y11930000D03*
X15040000Y8630000D03*
X10680000D03*
X2243750Y7396250D03*
X4340000Y3896250D03*
X1826250Y10676250D03*
X4437500Y5210000D03*
X3793750Y10666250D03*
X12903750Y7266250D03*
X12188930Y10821060D03*
X5380000Y7190000D03*
X2230000Y8700000D03*
X5806250Y10666250D03*
X10020000Y11970000D03*
X10650000Y5130000D03*
X8009680Y3399680D03*
X16912500Y4120000D03*
X17020000Y5240000D03*
X10590000Y3856250D03*
X2220000Y5210000D03*
X12930000Y8590000D03*
X3250000Y10020000D03*
X14600000Y6920000D03*
X16410000Y10480000D03*
X8390000Y3720000D03*
X14390000Y10720480D03*
X1990000Y7250000D03*
X5400000Y9190000D03*
X2032500Y4067500D03*
X6160000Y7180000D03*
X14660000Y3740000D03*
X10930000Y7140000D03*
X12090000Y7100000D03*
X1640000Y10520000D03*
X4190000Y3760000D03*
X2540000Y10400000D03*
X14230000Y3399680D03*
X12710000Y7120000D03*
X8170000Y10090000D03*
X10680000Y10370000D03*
X17100000Y3810000D03*
X12591870Y3741880D03*
X12590000Y1140000D03*
X9950000Y10440000D03*
X6280000Y3750000D03*
X10420000Y3730000D03*
X8660000Y7170000D03*
X17390000Y620000D03*
X5860000Y6920000D03*
X8408930Y10450000D03*
X7900000Y3280000D03*
X17710000Y9940000D03*
X5020000Y9820000D03*
X11530000Y9990000D03*
X11740000Y10190000D03*
X7510000Y10430000D03*
X2970000Y10390000D03*
X3700000Y6770000D03*
X5140000Y9920000D03*
X14160000Y10340000D03*
X12089680Y3399680D03*
X14607520Y802480D03*
X7940000Y10190000D03*
X8410000Y9890000D03*
X14010000Y10380000D03*
X11320000Y9760000D03*
X13240000Y1140000D03*
X19440000Y6920000D03*
X14410000Y6689080D03*
X3780000Y6920000D03*
X15160000Y1170000D03*
X16430000Y6580000D03*
X10230000Y3560000D03*
X5780000Y6770000D03*
X19120000Y3280000D03*
X7710000Y9920000D03*
X16320000Y6490000D03*
X16760000Y6920000D03*
X17390000Y7110000D03*
X2970000Y9820000D03*
X8520000Y9760000D03*
X5680000Y6690000D03*
X7640000Y10020000D03*
X15310000Y1200000D03*
X12880000Y1240010D03*
X7790000Y10820000D03*
X12090000Y6490000D03*
X5230000Y10020000D03*
X5440000Y10220000D03*
X14380000Y10060000D03*
X17930000Y10100000D03*
X14010000Y3180000D03*
X12240000Y1240010D03*
X11640000Y10090000D03*
X8280000Y9990000D03*
X14660000Y3040000D03*
X17820000Y10020000D03*
X7940000Y10380000D03*
X8550000Y10480000D03*
X5340000Y10130000D03*
X7810000Y3180000D03*
X7790000Y9820000D03*
X11410000Y9890000D03*
X14310000Y6580000D03*
X8040000Y6920000D03*
X12510000D03*
X5890000Y3400000D03*
X12020000Y3280000D03*
X5790000Y3284940D03*
X10029680Y3399680D03*
X5690000Y3180000D03*
X7930000Y7425320D03*
X14120000Y3280000D03*
X7780000Y6490000D03*
X15040000Y1140000D03*
X12410000Y3625480D03*
X3410000Y6490000D03*
X14830000Y2970000D03*
X16460000Y3350000D03*
X16350000Y3280000D03*
X9810000Y3180000D03*
X5480000Y6490000D03*
X9920000Y3280000D03*
X11930000Y3180000D03*
X14510000Y6770000D03*
X19220000Y3350000D03*
X16650000Y6770000D03*
X16250000Y3180000D03*
X19440000Y3510000D03*
X16540000Y6690000D03*
X19030000Y3180000D03*
X19340000Y3430000D03*
X12050000Y3070000D03*
X11790000Y3080000D03*
X12410000D03*
X19340000Y6770000D03*
X19220000Y6690000D03*
X19840000Y1250000D03*
X18620000Y390000D03*
X8583340Y12033340D03*
X3760000Y2550000D03*
X10750000Y12000000D03*
X10270000Y6920000D03*
X2100000Y1620000D03*
X2050000Y1830000D03*
X1810000Y2160000D03*
X2010000Y2010000D03*
X1920000Y1600000D03*
X10750000Y12290000D03*
X1820000Y2010000D03*
X2020000Y2170000D03*
X3570000Y2400000D03*
X5140000Y640000D03*
X3400000Y2540000D03*
X5330000Y640000D03*
X5540000D03*
X3370000Y2390000D03*
X5790000Y630000D03*
X5140000Y440000D03*
X3760000Y2390000D03*
X5320000Y450000D03*
X3570000Y2540000D03*
X5550000Y440000D03*
X5770000Y430000D03*
X15080000Y12070000D03*
X4700000Y8830000D03*
X11840000Y12580000D03*
X8583340Y12326660D03*
X15080000Y12460000D03*
X14510000Y5910000D03*
X10350000Y9290000D03*
X6020000Y9350000D03*
X12320000Y5880000D03*
X9720000Y12580000D03*
X16720000Y5940000D03*
X1880000Y5890000D03*
G54D17*
X14566000Y14030000D03*
X14312000Y14284000D03*
Y14030000D03*
X14058000Y14284000D03*
Y14030000D03*
X18376000Y14284000D03*
X13804000D03*
X18376000Y14030000D03*
X18122000Y14284000D03*
Y14030000D03*
X17868000Y14284000D03*
Y14030000D03*
X17614000Y14284000D03*
Y14030000D03*
X17360000Y14284000D03*
Y14030000D03*
X17106000Y14284000D03*
X13804000Y14030000D03*
X17106000D03*
X16852000Y14284000D03*
Y14030000D03*
X16598000Y14284000D03*
Y14030000D03*
X16344000Y14284000D03*
Y14030000D03*
X16090000Y14284000D03*
Y14030000D03*
X15836000Y14284000D03*
X13550000D03*
X15836000Y14030000D03*
X15582000Y14284000D03*
Y14030000D03*
X15328000Y14284000D03*
Y14030000D03*
X15074000Y14284000D03*
Y14030000D03*
X14820000Y14284000D03*
Y14030000D03*
X14566000Y14284000D03*
X13550000Y14030000D03*
X8536000D03*
X8282000Y14284000D03*
Y14030000D03*
X8028000Y14284000D03*
Y14030000D03*
X12346000Y14284000D03*
X7774000D03*
X12346000Y14030000D03*
X12092000Y14284000D03*
Y14030000D03*
X11838000Y14284000D03*
Y14030000D03*
X11584000Y14284000D03*
Y14030000D03*
X11330000Y14284000D03*
Y14030000D03*
X11076000Y14284000D03*
X7774000Y14030000D03*
X11076000D03*
X10822000Y14284000D03*
Y14030000D03*
X10568000Y14284000D03*
Y14030000D03*
X10314000Y14284000D03*
Y14030000D03*
X10060000Y14284000D03*
Y14030000D03*
X9806000Y14284000D03*
X7520000D03*
X9806000Y14030000D03*
X9552000Y14284000D03*
Y14030000D03*
X9298000Y14284000D03*
Y14030000D03*
X9044000Y14284000D03*
Y14030000D03*
X8790000Y14284000D03*
Y14030000D03*
X8536000Y14284000D03*
X7520000Y14030000D03*
X2506000D03*
X2252000Y14284000D03*
Y14030000D03*
X1998000Y14284000D03*
Y14030000D03*
X1744000Y14284000D03*
X6316000Y14030000D03*
X6062000Y14284000D03*
Y14030000D03*
X5808000Y14284000D03*
Y14030000D03*
X5554000Y14284000D03*
Y14030000D03*
X5300000Y14284000D03*
Y14030000D03*
X5046000Y14284000D03*
X1744000Y14030000D03*
X5046000D03*
X4792000Y14284000D03*
Y14030000D03*
X4538000Y14284000D03*
Y14030000D03*
X4284000Y14284000D03*
Y14030000D03*
X4030000Y14284000D03*
Y14030000D03*
X3776000Y14284000D03*
X1490000D03*
X3776000Y14030000D03*
X3522000Y14284000D03*
Y14030000D03*
X3268000Y14284000D03*
Y14030000D03*
X3014000Y14284000D03*
Y14030000D03*
X2760000Y14284000D03*
Y14030000D03*
X2506000Y14284000D03*
X1490000Y14030000D03*
X15734000Y930000D03*
X15988000Y676000D03*
Y930000D03*
X16242000Y676000D03*
Y930000D03*
X11924000Y676000D03*
X16496000D03*
X12178000D03*
X12432000D03*
Y930000D03*
X12686000Y676000D03*
Y930000D03*
X12940000Y676000D03*
Y930000D03*
X13194000Y676000D03*
X16496000Y930000D03*
X13194000D03*
X13448000Y676000D03*
Y930000D03*
X13702000Y676000D03*
Y930000D03*
X13956000Y676000D03*
Y930000D03*
X14210000Y676000D03*
Y930000D03*
X14464000Y676000D03*
X16750000D03*
X14464000Y930000D03*
X14718000Y676000D03*
Y930000D03*
X14972000Y676000D03*
Y930000D03*
X15226000Y676000D03*
Y930000D03*
X15480000Y676000D03*
Y930000D03*
X15734000Y676000D03*
X16750000Y930000D03*
G54D18*
X11924000D03*
G54D16*
X1110000Y1660000D03*
%LPD*%
G75*
G54D10*
X500000Y500000D03*
Y14500000D03*
X20500000Y500000D03*
Y14500000D03*
G54D11*
X580000Y1800000D03*
X760000D03*
X570000Y1560000D03*
X760000Y1550000D03*
X590000Y1310000D03*
X760000Y1300000D03*
X630000Y2000000D03*
X830000Y2030000D03*
X930000Y1810000D03*
X940000Y1550000D03*
X970000Y1300000D03*
X1150000Y1320000D03*
X1050000Y2000000D03*
X1447500Y4067500D03*
X1390000Y11110000D03*
X937500Y11732500D03*
X980000Y12620000D03*
X1890000Y1820000D03*
X2050000Y1830000D03*
X1920000Y1600000D03*
X2100000Y1620000D03*
X1810000Y2160000D03*
X2020000Y2170000D03*
X1820000Y2010000D03*
X2010000D03*
X1967500Y3824800D03*
X1902500Y4067500D03*
X1740000Y4390000D03*
X2032500Y4067500D03*
X1590000Y4950000D03*
X1610000Y5890000D03*
X1880000D03*
X1990000Y7250000D03*
X1750000Y7820000D03*
X1610000Y8440000D03*
X1570000Y9350000D03*
X1860000D03*
X1640000Y10520000D03*
X1826250Y10676250D03*
X1830000Y11950000D03*
X1930000Y12300000D03*
X1580000Y12620000D03*
X2470000Y1110000D03*
Y930000D03*
X2670000Y1790000D03*
X2550000Y2150000D03*
X2770000Y2160000D03*
X2680000Y1980000D03*
X2767500Y4060000D03*
X2472500Y4037500D03*
X2767500Y4960000D03*
X2472500Y4947500D03*
Y4487500D03*
X2220000Y5460000D03*
X2472500Y5437500D03*
X2220000Y5210000D03*
X2717500Y7530000D03*
X2243750Y7396250D03*
X2717500Y8440000D03*
X2260000Y8920000D03*
X2230000Y8700000D03*
X2540000Y10400000D03*
X2260000Y10920000D03*
X2250000Y11810000D03*
X2562710Y12707290D03*
X2350000Y13130000D03*
X2380000Y12990000D03*
X2460000Y12840000D03*
X3200000Y1000000D03*
X2850000Y1790000D03*
X2980000Y2150000D03*
X2870000Y1970000D03*
X3400000Y2540000D03*
X3370000Y2390000D03*
X3410000Y6490000D03*
X3260000Y7940000D03*
X3295000Y7665000D03*
X3190000Y8920000D03*
X3320000Y8380000D03*
X3350000Y10130000D03*
X3250000Y10020000D03*
X3140000Y9920000D03*
X2970000Y9820000D03*
X3430000Y10220000D03*
Y10450000D03*
X3170000Y10795320D03*
X3350000Y10390000D03*
X3250000D03*
X3140000Y10410000D03*
X2970000Y10390000D03*
X3400000Y11120000D03*
X3230000Y11690000D03*
X3270000Y12620000D03*
X3110000Y13340000D03*
X3220000Y13180000D03*
X3350000Y13000000D03*
X3760000Y2550000D03*
X3570000Y2400000D03*
X3760000Y2390000D03*
X3570000Y2540000D03*
X3970000Y3720000D03*
X3880910Y3705140D03*
X3790000Y3710000D03*
X3700000Y3700000D03*
X3610000Y3710000D03*
X3950000Y4330000D03*
X3800000Y4930000D03*
X3780000Y5890000D03*
X4050000D03*
X3780000Y6920000D03*
X3700000Y6770000D03*
X3580000Y6670000D03*
X3490000Y6590000D03*
X3840000Y7130000D03*
X3750000Y7140000D03*
X3650000D03*
X3540000Y7150000D03*
X3440000D03*
X3840000Y7780000D03*
X3730000Y8379390D03*
X3700000Y9310000D03*
X4000000D03*
X3572500Y10787700D03*
X3793750Y10666250D03*
X3820000Y11950000D03*
X3866160Y12300000D03*
X3520000Y12620000D03*
X4680000Y1190000D03*
X4590000Y1180000D03*
X4690000Y1320000D03*
X4590000Y1310000D03*
X4690000Y1460000D03*
X4590000Y1450000D03*
X4680000Y1600000D03*
X4590000Y1590000D03*
X4290000Y3180000D03*
X4270000Y3580000D03*
X4290000Y3490000D03*
X4270000Y3399680D03*
X4280000Y3284940D03*
X4190000Y3760000D03*
X4642500Y4027500D03*
X4340000Y3896250D03*
X4642500Y4937500D03*
Y4482500D03*
X4370000Y5440000D03*
X4642500Y5437500D03*
X4437500Y5210000D03*
X4080000Y7190000D03*
X4142500Y7630000D03*
X4330000Y8890000D03*
X4700000Y8830000D03*
X4330000Y8670000D03*
X4317500Y10820000D03*
X4310000Y11720000D03*
X4440000Y13390000D03*
X4390000Y13510000D03*
X4380000Y13680000D03*
X4411900Y13780000D03*
X5140000Y640000D03*
X5330000D03*
X5140000Y440000D03*
X5320000Y450000D03*
X4937500Y4060000D03*
Y4960000D03*
X5020000Y7750000D03*
X5271980Y7930000D03*
X4867500Y8390000D03*
X5230000Y8370000D03*
X5340000Y10130000D03*
X5230000Y10020000D03*
X5140000Y9920000D03*
X5020000Y9820000D03*
X5340000Y10470000D03*
X5230000Y10460000D03*
X5140000Y10430000D03*
X5020000Y10440000D03*
X5340000Y11090000D03*
X5260000Y11667500D03*
X4850000Y12620000D03*
X5540000Y640000D03*
X5790000Y630000D03*
X5550000Y440000D03*
X5770000Y430000D03*
X5690000Y3180000D03*
X5890000Y3400000D03*
Y3700000D03*
X5790000Y3284940D03*
Y3700000D03*
X5690000D03*
X5860000Y4950000D03*
X5950000Y5870000D03*
X5860000Y6920000D03*
X5780000Y6770000D03*
X5680000Y6690000D03*
X5580000Y6590000D03*
X5480000Y6490000D03*
X5930000Y7130000D03*
X5830000Y7120000D03*
X5720000D03*
X5620000Y7130000D03*
X5510000Y7120000D03*
X5380000Y7190000D03*
X5930000Y7830000D03*
X5423040Y7700000D03*
X5750000Y8420000D03*
X5720000Y9350000D03*
X5400000Y9190000D03*
X5440000Y10220000D03*
Y10490000D03*
X5635000Y10515000D03*
X5806250Y10666250D03*
X5850000Y11970000D03*
X5870000Y12200000D03*
X5470000Y12620000D03*
X5760000Y13300000D03*
X5880000Y13360000D03*
X5981750Y13371750D03*
X6080000Y3560000D03*
X6082530Y3700000D03*
X5990000Y3490000D03*
Y3700000D03*
X6280000Y3750000D03*
X6050000Y4300000D03*
X6453750Y3876250D03*
X6480000Y5450000D03*
X6500000Y5200000D03*
X6230000Y5870000D03*
X6612500Y7567500D03*
X6330000Y7554360D03*
X6160000Y7180000D03*
X6612500Y8002500D03*
X6222500Y7660000D03*
X6612500Y8462500D03*
X6380000Y8710000D03*
X6360000Y8970000D03*
X6020000Y9350000D03*
X6190010Y10810010D03*
X6080000Y11710000D03*
X6070000Y13300000D03*
X6160000Y13500000D03*
X6280000Y13620000D03*
X6428100Y13700000D03*
X6560000Y13800000D03*
X6410000Y14404640D03*
X6957500Y4170000D03*
X6662500Y4162500D03*
X6957500Y5060000D03*
X6662500Y5032500D03*
Y4587500D03*
X6640000Y5570000D03*
X6907500Y7540000D03*
Y8410000D03*
X7212540Y12980000D03*
X6790000Y13909360D03*
X6960000Y14163360D03*
X7090000Y14284000D03*
X7810000Y3180000D03*
X7804880Y3701010D03*
X7880000Y6690000D03*
Y6590000D03*
X7780000Y6490000D03*
X7879680Y7110000D03*
X7780000D03*
X7840000Y8360000D03*
X7520000Y9290000D03*
X7570000Y10130000D03*
X7640000Y10020000D03*
X7710000Y9920000D03*
X7790000Y9820000D03*
X7870690Y10490000D03*
X7510000Y10220000D03*
Y10430000D03*
X7870000Y10700000D03*
X7480000Y10750000D03*
X7550000Y10820000D03*
X7660000D03*
X7790000D03*
X7866250Y10586250D03*
X7490000Y11030000D03*
X7315730Y11620000D03*
X7610000Y12580000D03*
X8390000Y3720000D03*
X8200000Y3560000D03*
X8190000Y3710000D03*
X8110000Y3490000D03*
X8099680Y3710000D03*
X8009680Y3399680D03*
X8009360Y3700000D03*
X7900000Y3280000D03*
Y3700000D03*
X8160000Y4310000D03*
X7980000Y4950000D03*
X8030000Y5870000D03*
X8320000D03*
X8040000Y6920000D03*
X7970000Y6770000D03*
X8040000Y7170000D03*
X7970000Y7110000D03*
X7930000Y7425320D03*
X8312500Y7460000D03*
X8030000Y7690000D03*
X8470000Y8860000D03*
X8490000Y8670000D03*
X8110000Y9290000D03*
X7940000Y10190000D03*
X8170000Y10090000D03*
X8280000Y9990000D03*
X8410000Y9890000D03*
X8520000Y9760000D03*
X7940000Y10380000D03*
X8309800Y10660000D03*
X8170000Y10450000D03*
X8280000Y10440000D03*
X8408930Y10450000D03*
X8320000Y11090000D03*
X8407500Y11770000D03*
X7910000Y11900000D03*
X7970000Y12160000D03*
X8782500Y4137500D03*
X9077500Y4090000D03*
X8590000Y3876250D03*
X8782500Y5002500D03*
Y4567500D03*
X9077500Y5040000D03*
X8720000Y5530000D03*
X8600000Y5450000D03*
X8602500Y5230000D03*
X8660000Y7170000D03*
X8702500Y7567500D03*
X8997500Y7580000D03*
X8702500Y8007500D03*
X8880000Y8256670D03*
X8702500Y8442500D03*
X8673020Y8970000D03*
X8550000Y10480000D03*
X8583340Y12033340D03*
Y12326660D03*
X9733600Y6176400D03*
X9670000Y10950000D03*
X9430000Y11650000D03*
X9460000Y12580000D03*
X9720000D03*
X9810000Y3180000D03*
X10230000Y3560000D03*
Y3700000D03*
X10420000Y3730000D03*
X10130000Y3490000D03*
Y3700000D03*
X10029680Y3399680D03*
Y3700000D03*
X9920000Y3280000D03*
X9920310Y3686540D03*
X9810000Y3700000D03*
X10190000Y4270000D03*
X10041700Y4865000D03*
X10370000Y5880000D03*
X10270000Y6920000D03*
X10200000Y6770000D03*
X10110000Y6690000D03*
X9970000Y6580000D03*
X9900000Y6490000D03*
X10280000Y7120000D03*
X10180000Y7110000D03*
X10071510Y7111510D03*
X9970000Y7110000D03*
X9870000D03*
X10260000Y7680000D03*
X10080000Y8360000D03*
X10350000Y9290000D03*
X9951090Y9650000D03*
X9950000Y10440000D03*
X9983750Y10586250D03*
X10020000Y11970000D03*
X10030000Y12150000D03*
X10822500Y4107500D03*
X10590000Y3856250D03*
X10822500Y4547500D03*
Y5022500D03*
X10640000Y5410000D03*
X10680000Y5290000D03*
X10650000Y5130000D03*
X10930000Y7140000D03*
X10962500Y7542500D03*
X10663750Y7296250D03*
X10962500Y8012500D03*
Y8442500D03*
X10650000Y8860000D03*
X10680000Y8630000D03*
X10910000Y9220000D03*
X10680000Y10370000D03*
X10567500Y10890000D03*
X10750000Y12000000D03*
X10515000Y11755000D03*
X10750000Y12290000D03*
X11117500Y4080000D03*
Y5070000D03*
X11257500Y7600000D03*
X11402500Y8482500D03*
X11640000Y10090000D03*
X11530000Y9990000D03*
X11410000Y9890000D03*
X11320000Y9760000D03*
X11420370Y10709630D03*
X11640000Y10370000D03*
X11533310Y10356690D03*
X11410000Y10400000D03*
X11320000Y10430000D03*
X11700000Y11000000D03*
X11545490Y11670000D03*
X11250000Y12580000D03*
X12240000Y1240010D03*
X12170000Y1070000D03*
X12280000Y3070000D03*
X12189680D03*
X12050000D03*
X11790000Y3080000D03*
X11930000Y3180000D03*
X12280000Y3560000D03*
X12280150Y3721120D03*
X12190000Y3490000D03*
X12189830Y3700000D03*
X12089680Y3399680D03*
X12099510Y3700700D03*
X12020000Y3280000D03*
X12008220Y3693190D03*
X11900000Y3700000D03*
X12260000Y4260000D03*
X12132380Y4832380D03*
X11750000Y5880000D03*
X12320000D03*
Y6690000D03*
X12210000Y6580000D03*
X12090000Y6490000D03*
X12320370Y7091210D03*
X12215000Y7095000D03*
X12090000Y7100000D03*
X12310000Y8330000D03*
Y9460000D03*
X11740000Y10190000D03*
Y10370000D03*
X12188930Y10821060D03*
X12180000Y11890000D03*
Y12290000D03*
X11840000Y12580000D03*
X12880000Y1240010D03*
X12590000Y1140000D03*
X12410000Y3080000D03*
Y3625480D03*
X12591870Y3741880D03*
X12912500Y4082500D03*
X12656250Y3856250D03*
X12912500Y4547500D03*
X12950000Y5030000D03*
X12545000Y5305320D03*
X12760000Y5300000D03*
X12699060Y5120000D03*
X12510000Y6920000D03*
X12410000Y6770000D03*
X12710000Y7120000D03*
X12510000Y7090000D03*
X12410660Y7088780D03*
X12903750Y7266250D03*
X12500000Y7680000D03*
X12920000Y8840000D03*
X12930000Y8590000D03*
X12580000Y9260000D03*
X12687500Y10880000D03*
Y11770000D03*
X12380000Y13348100D03*
X12670000Y13650000D03*
X12600000Y13530000D03*
X12490000Y13490000D03*
X12920000Y13900000D03*
X12819580Y13670000D03*
X12940000Y14160000D03*
X13240000Y1140000D03*
X13030000Y4340000D03*
X13290000Y5060000D03*
X13102500Y7527500D03*
X13397500Y7560000D03*
X13102500Y7977500D03*
Y8442500D03*
X13050000Y8880000D03*
X13397500Y8460000D03*
X13580000Y10410000D03*
X13470000Y10400000D03*
X13040000Y14284000D03*
X14010000Y3180000D03*
X14230000Y3399680D03*
Y3670000D03*
X14120000Y3280000D03*
Y3680000D03*
X14010000D03*
X14250000Y4910000D03*
X14220000Y5910000D03*
X14210000Y6490000D03*
Y7100000D03*
X13970000Y9600000D03*
X14010000Y10380000D03*
X13868090Y10431910D03*
X14160000Y10340000D03*
X13770000Y10420000D03*
X14250000Y10250000D03*
X13675000Y10405000D03*
X14256250Y10616250D03*
X13870000Y11040000D03*
X13730000Y11620000D03*
X13640000Y12640000D03*
X13930000D03*
X14607520Y802480D03*
X14830000Y2970000D03*
X14660000Y3040000D03*
X14430000Y3510000D03*
Y3710000D03*
X14320000Y3490000D03*
Y3700000D03*
X14660000Y3740000D03*
X14420000Y4290000D03*
X14813750Y3886250D03*
X14880000Y5440000D03*
X14870000Y5170000D03*
X14510000Y5910000D03*
X14600000Y6920000D03*
X14510000Y6770000D03*
X14410000Y6689080D03*
X14310000Y6580000D03*
X14600000Y7100000D03*
X14510000Y7090000D03*
X14409770Y7089990D03*
X14310000Y7090000D03*
X14795000Y7155000D03*
X14570000Y7720000D03*
X14400000Y8320000D03*
X14290000Y10150000D03*
X14380000Y10060000D03*
X14390000Y10720480D03*
X14830000Y11120000D03*
X14877500Y11830000D03*
X14380000Y11930000D03*
X14330000Y12160000D03*
X15040000Y1140000D03*
X15160000Y1170000D03*
X15310000Y1200000D03*
X15327500Y4140000D03*
X15032500Y4127500D03*
X15327500Y5100000D03*
X15032500Y4577500D03*
Y5052500D03*
Y5587500D03*
X15537500Y7550000D03*
X15242500Y7507500D03*
X14963750Y7306250D03*
X15242500Y8007500D03*
X15010000Y8850000D03*
X15537500Y8500000D03*
X15242500Y8472500D03*
X15040000Y8630000D03*
X15194010Y8954010D03*
X15023600Y9616400D03*
X15070000Y10660000D03*
X15080000Y12070000D03*
Y12460000D03*
X16170000Y9320000D03*
X15990000Y10150000D03*
X15750000D03*
X15630000Y10500000D03*
X16080000Y10429990D03*
X15700010D03*
X16049990Y10340000D03*
X15710560Y10340280D03*
X16030000Y10250000D03*
X15720000D03*
X16020000Y11030000D03*
X15852360Y11622360D03*
X15890000Y12630000D03*
X16150000D03*
X16250000Y3180000D03*
X16650000Y3510000D03*
Y3710000D03*
X16560000Y3430000D03*
Y3700000D03*
X16460000Y3350000D03*
Y3690000D03*
X16350000Y3280000D03*
Y3690000D03*
X16250000Y3680000D03*
X16640000Y4340000D03*
X16410000Y4920000D03*
X16340000Y6360000D03*
X16720000Y5940000D03*
X16760000Y6920000D03*
X16650000Y6770000D03*
X16540000Y6690000D03*
X16430000Y6580000D03*
X16320000Y6490000D03*
X16760000Y7110000D03*
X16650000Y7090000D03*
X16540000D03*
X16430000Y7080000D03*
X16320000D03*
X16581450Y8280000D03*
X16447500Y7730000D03*
X16770000Y9320000D03*
X16188560Y10438580D03*
X16410000Y10480000D03*
X16413750Y10606250D03*
X16477360Y11893130D03*
X16480000Y12150000D03*
X17390000Y620000D03*
X17100000Y3810000D03*
X17252500Y4132500D03*
X16912500Y4120000D03*
X17252500Y4607500D03*
X17200000Y5100000D03*
X16990000Y5460000D03*
X17252500Y5572500D03*
X17020000Y5240000D03*
X17402500Y7517500D03*
X17390000Y7110000D03*
X17156250Y7296250D03*
X17402500Y7972500D03*
X17160000Y8830000D03*
X17402500Y8472500D03*
X17312500Y8902500D03*
X17172500Y8610000D03*
X16940000Y10850000D03*
X16950000Y11810000D03*
X17547500Y4160000D03*
Y5110000D03*
X17630000Y7530000D03*
X17720000Y8490000D03*
X18037020Y10177020D03*
X17930000Y10100000D03*
X17820000Y10020000D03*
X17710000Y9940000D03*
X18037020Y10412980D03*
X17930000Y10400000D03*
X17820000Y10410000D03*
X17710000D03*
X18050000Y11030000D03*
X17880000Y11620000D03*
X17950000Y12690000D03*
X18250000Y620000D03*
X18620000Y390000D03*
X18102500Y10477500D03*
Y10257500D03*
X18463750Y10606250D03*
X18490000Y11930000D03*
X18480000Y12170000D03*
X18250000Y12690000D03*
X19030000Y790000D03*
X19080000Y1250000D03*
X19030000Y3180000D03*
X19340000Y3430000D03*
X19220000Y3350000D03*
X19120000Y3280000D03*
X19340000Y6770000D03*
X19220000Y6690000D03*
X19120000Y6580000D03*
X19050000Y6490000D03*
X19007500Y10850000D03*
Y11810000D03*
X19840000Y1250000D03*
X19440000Y3510000D03*
Y6920000D03*
G54D12*
X1420000Y1190000D03*
G54D13*
X1110000Y1660000D03*
X1730000D03*
G54D14*
X1490000Y14030000D03*
Y14284000D03*
X1998000Y14030000D03*
X1744000D03*
X1998000Y14284000D03*
X1744000D03*
X2760000Y14030000D03*
X2506000D03*
X2252000D03*
X2760000Y14284000D03*
X2506000D03*
X2252000D03*
X3268000Y14030000D03*
X3014000D03*
X3268000Y14284000D03*
X3014000D03*
X4030000Y14030000D03*
X3776000D03*
X3522000D03*
X4030000Y14284000D03*
X3776000D03*
X3522000D03*
X4538000Y14030000D03*
X4284000D03*
X4538000Y14284000D03*
X4284000D03*
X5300000Y14030000D03*
X5046000D03*
X4792000D03*
X5300000Y14284000D03*
X5046000D03*
X4792000D03*
X5808000Y14030000D03*
X5554000D03*
X5808000Y14284000D03*
X5554000D03*
X6316000Y14030000D03*
X6062000D03*
X6316000Y14284000D03*
X6062000D03*
X7774000Y14030000D03*
X7520000D03*
X7774000Y14284000D03*
X7520000D03*
X8536000Y14030000D03*
X8282000D03*
X8028000D03*
X8536000Y14284000D03*
X8282000D03*
X8028000D03*
X9044000Y14030000D03*
X8790000D03*
X9044000Y14284000D03*
X8790000D03*
X9806000Y14030000D03*
X9552000D03*
X9298000D03*
X9806000Y14284000D03*
X9552000D03*
X9298000D03*
X10314000Y14030000D03*
X10060000D03*
X10314000Y14284000D03*
X10060000D03*
X11076000Y14030000D03*
X10822000D03*
X10568000D03*
X11076000Y14284000D03*
X10822000D03*
X10568000D03*
X11584000Y14030000D03*
X11330000D03*
X11584000Y14284000D03*
X11330000D03*
X11924000Y676000D03*
X12178000D03*
X11924000Y930000D03*
X12178000D03*
X12346000Y14030000D03*
X12092000D03*
X11838000D03*
X12346000Y14284000D03*
X12092000D03*
X11838000D03*
X12432000Y676000D03*
X12686000D03*
X12940000D03*
X12432000Y930000D03*
X12686000D03*
X12940000D03*
X13194000Y676000D03*
X13448000D03*
X13194000Y930000D03*
X13448000D03*
X13550000Y14030000D03*
Y14284000D03*
X13702000Y676000D03*
X13956000D03*
X14210000D03*
X13702000Y930000D03*
X13956000D03*
X14210000D03*
X14058000Y14030000D03*
X13804000D03*
X14058000Y14284000D03*
X13804000D03*
X14464000Y676000D03*
X14718000D03*
X14464000Y930000D03*
X14718000D03*
X14820000Y14030000D03*
X14566000D03*
X14312000D03*
X14820000Y14284000D03*
X14566000D03*
X14312000D03*
X14972000Y676000D03*
X15226000D03*
X15480000D03*
X14972000Y930000D03*
X15226000D03*
X15480000D03*
X15582000Y14030000D03*
X15328000D03*
X15074000D03*
X15582000Y14284000D03*
X15328000D03*
X15074000D03*
X15734000Y676000D03*
X15988000D03*
X15734000Y930000D03*
X15988000D03*
X16090000Y14030000D03*
X15836000D03*
X16090000Y14284000D03*
X15836000D03*
X16242000Y676000D03*
X16496000D03*
X16750000D03*
X16242000Y930000D03*
X16496000D03*
X16750000D03*
X16852000Y14030000D03*
X16598000D03*
X16344000D03*
X16852000Y14284000D03*
X16598000D03*
X16344000D03*
X17360000Y14030000D03*
X17106000D03*
X17360000Y14284000D03*
X17106000D03*
X18122000Y14030000D03*
X17868000D03*
X17614000D03*
X18122000Y14284000D03*
X17868000D03*
X17614000D03*
X18376000Y14030000D03*
Y14284000D03*
G54D15*
G01X1420000Y1092200D02*
Y1190000D01*
G01D02*
Y1287800D01*
G01X1182200Y1190000D02*
X1420000D01*
G01D02*
X1657800D01*
G01X1110000Y1422200D02*
Y1660000D01*
G01D02*
Y1897800D01*
G01X1012200Y1660000D02*
X1110000D01*
G01D02*
X1207800D01*
G01X11924000Y832200D02*
Y930000D01*
G01D02*
Y1027800D01*
G01X11826200Y930000D02*
X11924000D01*
G01D02*
X12021800D01*
G01X12178000Y832200D02*
Y930000D01*
G01X12080200D02*
X12178000D01*
G01D02*
X12275800D01*
M02*
