M48
METRIC
T01C.4
T02C.9
T03C3.1
;LEADER: 12 
;HEADER: 
;CODE  : ASCII 
;FILE  : volt_ctrl-1-4.drl for board E:/master_WHU/voltage_control/00volt_ctrl_pcb/pcb/#Taaaaiw07604.tmp ... layers TOP and BOTTOM
;T01 Holesize 1. = 0.400000 Tolerance = +0.000000/-0.000000 PLATED MM Quantity = 666
;T02 Holesize 2. = 0.900000 Tolerance = +0.000000/-0.000000 PLATED MM Quantity = 160
;T03 Holesize 3. = 3.100000 Tolerance = +0.000000/-0.000000 PLATED MM Quantity = 4
%
G90
T01
X0000760000Y0001300000
X0000970000Y0001300000
X0000590000Y0001310000
X0001150000Y0001320000
X0000760000Y0001550000
X0000940000Y0001550000
X0000570000Y0001560000
X0000580000Y0001800000
X0000760000Y0001800000
X0000930000Y0001810000
X0000630000Y0002000000
X0001050000Y0002000000
X0000830000Y0002030000
X0000937500Y0011732500
X0000980000Y0012620000
X0002350000Y0013130000
X0002380000Y0012990000
X0002460000Y0012840000
X0001580000Y0012620000
X0001930000Y0012300000
X0001830000Y0011950000
X0002250000Y0011810000
X0001390000Y0011110000
X0002260000Y0010920000
X0001826250Y0010676250
X0001640000Y0010520000
X0001860000Y0009350000
X0001570000Y0009350000
X0002260000Y0008920000
X0002230000Y0008700000
X0001610000Y0008440000
X0001750000Y0007820000
X0002243750Y0007396250
X0001990000Y0007250000
X0001880000Y0005890000
X0001610000Y0005890000
X0002220000Y0005460000
X0002472500Y0005437500
X0002220000Y0005210000
X0001590000Y0004950000
X0002472500Y0004947500
X0002472500Y0004487500
X0001740000Y0004390000
X0002032500Y0004067500
X0001902500Y0004067500
X0001447500Y0004067500
X0002472500Y0004037500
X0001967500Y0003824800
X0002020000Y0002170000
X0001810000Y0002160000
X0002010000Y0002010000
X0001820000Y0002010000
X0002050000Y0001830000
X0001890000Y0001820000
X0002100000Y0001620000
X0001920000Y0001600000
X0002470000Y0001110000
X0002470000Y0000930000
X0003200000Y0001000000
X0002670000Y0001790000
X0002850000Y0001790000
X0002870000Y0001970000
X0002680000Y0001980000
X0002550000Y0002150000
X0002980000Y0002150000
X0002770000Y0002160000
X0003370000Y0002390000
X0003760000Y0002390000
X0003570000Y0002400000
X0003400000Y0002540000
X0003570000Y0002540000
X0003760000Y0002550000
X0003700000Y0003700000
X0003610000Y0003710000
X0003790000Y0003710000
X0002767500Y0004060000
X0003800000Y0004930000
X0002767500Y0004960000
X0003780000Y0005890000
X0003410000Y0006490000
X0003490000Y0006590000
X0003580000Y0006670000
X0003700000Y0006770000
X0003780000Y0006920000
X0003650000Y0007140000
X0003750000Y0007140000
X0003440000Y0007150000
X0003540000Y0007150000
X0002717500Y0007530000
X0003295000Y0007665000
X0003260000Y0007940000
X0003320000Y0008380000
X0003730000Y0008379390
X0002717500Y0008440000
X0003190000Y0008920000
X0003700000Y0009310000
X0002970000Y0009820000
X0003140000Y0009920000
X0003250000Y0010020000
X0003350000Y0010130000
X0003430000Y0010220000
X0002970000Y0010390000
X0003250000Y0010390000
X0003350000Y0010390000
X0002540000Y0010400000
X0003140000Y0010410000
X0003430000Y0010450000
X0003793750Y0010666250
X0003572500Y0010787700
X0003170000Y0010795320
X0003400000Y0011120000
X0003230000Y0011690000
X0003270000Y0012620000
X0003520000Y0012620000
X0002562710Y0012707290
X0003350000Y0013000000
X0003220000Y0013180000
X0003110000Y0013340000
X0004411900Y0013780000
X0004380000Y0013680000
X0004390000Y0013510000
X0004440000Y0013390000
X0004850000Y0012620000
X0003866160Y0012300000
X0003820000Y0011950000
X0004310000Y0011720000
X0004317500Y0010820000
X0005020000Y0010440000
X0005020000Y0009820000
X0004000000Y0009310000
X0004330000Y0008890000
X0004700000Y0008830000
X0004330000Y0008670000
X0004867500Y0008390000
X0003840000Y0007780000
X0005020000Y0007750000
X0004142500Y0007630000
X0004080000Y0007190000
X0003840000Y0007130000
X0004050000Y0005890000
X0004370000Y0005440000
X0004642500Y0005437500
X0004437500Y0005210000
X0004937500Y0004960000
X0004642500Y0004937500
X0004642500Y0004482500
X0003950000Y0004330000
X0004937500Y0004060000
X0004642500Y0004027500
X0004340000Y0003896250
X0004190000Y0003760000
X0003970000Y0003720000
X0003880910Y0003705140
X0004270000Y0003580000
X0004290000Y0003490000
X0004270000Y0003399680
X0004280000Y0003284940
X0004290000Y0003180000
X0004680000Y0001600000
X0004590000Y0001590000
X0004690000Y0001460000
X0004590000Y0001450000
X0004690000Y0001320000
X0004590000Y0001310000
X0004680000Y0001190000
X0004590000Y0001180000
X0005770000Y0000430000
X0005140000Y0000440000
X0005550000Y0000440000
X0005320000Y0000450000
X0005790000Y0000630000
X0005140000Y0000640000
X0005330000Y0000640000
X0005540000Y0000640000
X0005690000Y0003180000
X0005790000Y0003284940
X0005890000Y0003400000
X0005990000Y0003490000
X0006080000Y0003560000
X0005690000Y0003700000
X0005790000Y0003700000
X0005890000Y0003700000
X0005990000Y0003700000
X0006082530Y0003700000
X0006280000Y0003750000
X0006050000Y0004300000
X0005860000Y0004950000
X0005950000Y0005870000
X0006230000Y0005870000
X0005480000Y0006490000
X0005580000Y0006590000
X0005680000Y0006690000
X0005780000Y0006770000
X0005860000Y0006920000
X0005510000Y0007120000
X0005720000Y0007120000
X0005830000Y0007120000
X0005620000Y0007130000
X0005930000Y0007130000
X0006160000Y0007180000
X0005380000Y0007190000
X0006330000Y0007554360
X0006222500Y0007660000
X0005423040Y0007700000
X0005930000Y0007830000
X0005271980Y0007930000
X0005230000Y0008370000
X0005750000Y0008420000
X0005400000Y0009190000
X0005720000Y0009350000
X0006020000Y0009350000
X0005140000Y0009920000
X0005230000Y0010020000
X0005340000Y0010130000
X0005440000Y0010220000
X0005140000Y0010430000
X0005230000Y0010460000
X0005340000Y0010470000
X0005440000Y0010490000
X0005635000Y0010515000
X0005806250Y0010666250
X0006190010Y0010810010
X0005340000Y0011090000
X0005260000Y0011667500
X0006080000Y0011710000
X0005850000Y0011970000
X0005870000Y0012200000
X0005470000Y0012620000
X0005760000Y0013300000
X0006070000Y0013300000
X0005880000Y0013360000
X0005981750Y0013371750
X0006160000Y0013500000
X0006280000Y0013620000
X0006410000Y0014404640
X0007090000Y0014284000
X0006960000Y0014163360
X0006790000Y0013909360
X0006560000Y0013800000
X0006428100Y0013700000
X0007212540Y0012980000
X0007610000Y0012580000
X0007315730Y0011620000
X0007490000Y0011030000
X0007550000Y0010820000
X0007480000Y0010750000
X0007510000Y0010430000
X0007510000Y0010220000
X0007570000Y0010130000
X0007520000Y0009290000
X0006360000Y0008970000
X0006380000Y0008710000
X0006612500Y0008462500
X0006907500Y0008410000
X0006612500Y0008002500
X0006612500Y0007567500
X0006907500Y0007540000
X0006640000Y0005570000
X0006480000Y0005450000
X0006500000Y0005200000
X0006957500Y0005060000
X0006662500Y0005032500
X0006662500Y0004587500
X0006957500Y0004170000
X0006662500Y0004162500
X0006453750Y0003876250
X0007810000Y0003180000
X0007900000Y0003280000
X0008009680Y0003399680
X0008110000Y0003490000
X0008200000Y0003560000
X0007804880Y0003701010
X0007900000Y0003700000
X0008009360Y0003700000
X0008099680Y0003710000
X0008190000Y0003710000
X0008390000Y0003720000
X0008590000Y0003876250
X0008782500Y0004137500
X0008160000Y0004310000
X0008782500Y0004567500
X0007980000Y0004950000
X0008782500Y0005002500
X0008602500Y0005230000
X0008600000Y0005450000
X0008720000Y0005530000
X0008030000Y0005870000
X0008320000Y0005870000
X0007780000Y0006490000
X0007880000Y0006590000
X0007880000Y0006690000
X0007970000Y0006770000
X0008040000Y0006920000
X0007780000Y0007110000
X0007879680Y0007110000
X0007970000Y0007110000
X0008040000Y0007170000
X0008660000Y0007170000
X0007930000Y0007425320
X0008312500Y0007460000
X0008702500Y0007567500
X0008030000Y0007690000
X0008702500Y0008007500
X0008880000Y0008256670
X0007840000Y0008360000
X0008702500Y0008442500
X0008490000Y0008670000
X0008470000Y0008860000
X0008673020Y0008970000
X0008110000Y0009290000
X0008520000Y0009760000
X0007790000Y0009820000
X0008410000Y0009890000
X0007710000Y0009920000
X0008280000Y0009990000
X0007640000Y0010020000
X0008170000Y0010090000
X0007940000Y0010190000
X0007940000Y0010380000
X0008280000Y0010440000
X0008170000Y0010450000
X0008408930Y0010450000
X0008550000Y0010480000
X0007870690Y0010490000
X0007866250Y0010586250
X0008309800Y0010660000
X0007870000Y0010700000
X0007660000Y0010820000
X0007790000Y0010820000
X0008320000Y0011090000
X0008407500Y0011770000
X0007910000Y0011900000
X0008583340Y0012033340
X0007970000Y0012160000
X0008583340Y0012326660
X0009720000Y0012580000
X0009460000Y0012580000
X0010030000Y0012150000
X0010020000Y0011970000
X0009430000Y0011650000
X0009670000Y0010950000
X0009983750Y0010586250
X0009950000Y0010440000
X0009951090Y0009650000
X0010080000Y0008360000
X0008997500Y0007580000
X0010071510Y0007111510
X0009970000Y0007110000
X0009870000Y0007110000
X0010110000Y0006690000
X0009970000Y0006580000
X0009900000Y0006490000
X0009733600Y0006176400
X0009077500Y0005040000
X0010041700Y0004865000
X0009077500Y0004090000
X0010130000Y0003700000
X0010029680Y0003700000
X0009810000Y0003700000
X0009920310Y0003686540
X0010130000Y0003490000
X0010029680Y0003399680
X0009920000Y0003280000
X0009810000Y0003180000
X0010230000Y0003560000
X0010230000Y0003700000
X0010420000Y0003730000
X0010590000Y0003856250
X0011117500Y0004080000
X0010822500Y0004107500
X0010190000Y0004270000
X0010822500Y0004547500
X0010822500Y0005022500
X0011117500Y0005070000
X0010650000Y0005130000
X0010680000Y0005290000
X0010640000Y0005410000
X0010370000Y0005880000
X0010200000Y0006770000
X0010270000Y0006920000
X0010180000Y0007110000
X0010280000Y0007120000
X0010930000Y0007140000
X0010663750Y0007296250
X0010962500Y0007542500
X0011257500Y0007600000
X0010260000Y0007680000
X0010962500Y0008012500
X0010962500Y0008442500
X0011402500Y0008482500
X0010680000Y0008630000
X0010650000Y0008860000
X0010910000Y0009220000
X0010350000Y0009290000
X0011320000Y0009760000
X0011410000Y0009890000
X0010680000Y0010370000
X0011410000Y0010400000
X0011320000Y0010430000
X0011420370Y0010709630
X0010567500Y0010890000
X0010515000Y0011755000
X0010750000Y0012000000
X0010750000Y0012290000
X0011250000Y0012580000
X0012670000Y0013650000
X0012600000Y0013530000
X0012490000Y0013490000
X0012380000Y0013348100
X0011840000Y0012580000
X0012180000Y0012290000
X0012180000Y0011890000
X0012687500Y0011770000
X0011545490Y0011670000
X0011700000Y0011000000
X0012687500Y0010880000
X0012188930Y0010821060
X0011740000Y0010370000
X0011640000Y0010370000
X0011533310Y0010356690
X0011740000Y0010190000
X0011640000Y0010090000
X0011530000Y0009990000
X0012310000Y0009460000
X0012580000Y0009260000
X0012310000Y0008330000
X0012500000Y0007680000
X0012090000Y0007100000
X0012215000Y0007095000
X0012320370Y0007091210
X0012510000Y0007090000
X0012410660Y0007088780
X0012510000Y0006920000
X0012410000Y0006770000
X0012320000Y0006690000
X0012210000Y0006580000
X0012090000Y0006490000
X0012320000Y0005880000
X0011750000Y0005880000
X0012545000Y0005305320
X0012132380Y0004832380
X0012260000Y0004260000
X0012656250Y0003856250
X0012591870Y0003741880
X0012280150Y0003721120
X0012189830Y0003700000
X0012099510Y0003700700
X0011900000Y0003700000
X0012008220Y0003693190
X0012410000Y0003625480
X0012280000Y0003560000
X0012190000Y0003490000
X0012089680Y0003399680
X0012020000Y0003280000
X0011930000Y0003180000
X0012410000Y0003080000
X0011790000Y0003080000
X0012280000Y0003070000
X0012189680Y0003070000
X0012050000Y0003070000
X0012240000Y0001240010
X0012590000Y0001140000
X0012170000Y0001070000
X0013240000Y0001140000
X0012880000Y0001240010
X0012912500Y0004082500
X0013030000Y0004340000
X0012912500Y0004547500
X0012950000Y0005030000
X0013290000Y0005060000
X0012699060Y0005120000
X0012760000Y0005300000
X0012710000Y0007120000
X0012903750Y0007266250
X0013102500Y0007527500
X0013397500Y0007560000
X0013102500Y0007977500
X0013102500Y0008442500
X0013397500Y0008460000
X0012930000Y0008590000
X0012920000Y0008840000
X0013050000Y0008880000
X0013470000Y0010400000
X0013675000Y0010405000
X0013580000Y0010410000
X0013770000Y0010420000
X0013868090Y0010431910
X0013870000Y0011040000
X0013730000Y0011620000
X0013640000Y0012640000
X0013930000Y0012640000
X0012819580Y0013670000
X0012920000Y0013900000
X0012940000Y0014160000
X0013040000Y0014284000
X0015080000Y0012460000
X0014330000Y0012160000
X0015080000Y0012070000
X0014380000Y0011930000
X0014877500Y0011830000
X0014830000Y0011120000
X0014390000Y0010720480
X0015070000Y0010660000
X0014256250Y0010616250
X0014010000Y0010380000
X0014160000Y0010340000
X0014250000Y0010250000
X0014290000Y0010150000
X0014380000Y0010060000
X0015023600Y0009616400
X0013970000Y0009600000
X0015194010Y0008954010
X0015010000Y0008850000
X0015040000Y0008630000
X0014400000Y0008320000
X0014570000Y0007720000
X0014963750Y0007306250
X0014795000Y0007155000
X0014600000Y0007100000
X0014210000Y0007100000
X0014510000Y0007090000
X0014409770Y0007089990
X0014310000Y0007090000
X0014600000Y0006920000
X0014510000Y0006770000
X0014410000Y0006689080
X0014310000Y0006580000
X0014210000Y0006490000
X0014510000Y0005910000
X0014220000Y0005910000
X0015032500Y0005587500
X0014880000Y0005440000
X0014870000Y0005170000
X0015032500Y0005052500
X0014250000Y0004910000
X0015032500Y0004577500
X0014420000Y0004290000
X0015032500Y0004127500
X0014813750Y0003886250
X0014660000Y0003740000
X0014430000Y0003710000
X0014320000Y0003700000
X0014120000Y0003680000
X0014010000Y0003680000
X0014230000Y0003670000
X0014430000Y0003510000
X0014320000Y0003490000
X0014230000Y0003399680
X0014120000Y0003280000
X0014010000Y0003180000
X0014660000Y0003040000
X0014830000Y0002970000
X0015160000Y0001170000
X0015040000Y0001140000
X0014607520Y0000802480
X0015310000Y0001200000
X0016250000Y0003180000
X0016350000Y0003280000
X0016460000Y0003350000
X0016250000Y0003680000
X0016350000Y0003690000
X0016460000Y0003690000
X0015327500Y0004140000
X0016410000Y0004920000
X0015327500Y0005100000
X0016340000Y0006360000
X0016320000Y0006490000
X0016430000Y0006580000
X0016320000Y0007080000
X0016430000Y0007080000
X0015242500Y0007507500
X0015537500Y0007550000
X0016447500Y0007730000
X0015242500Y0008007500
X0015242500Y0008472500
X0015537500Y0008500000
X0016170000Y0009320000
X0015750000Y0010150000
X0015990000Y0010150000
X0015720000Y0010250000
X0016030000Y0010250000
X0015710560Y0010340280
X0016049990Y0010340000
X0015700010Y0010429990
X0016080000Y0010429990
X0016188560Y0010438580
X0016410000Y0010480000
X0015630000Y0010500000
X0016413750Y0010606250
X0016020000Y0011030000
X0015852360Y0011622360
X0016477360Y0011893130
X0016480000Y0012150000
X0015890000Y0012630000
X0016150000Y0012630000
X0016950000Y0011810000
X0016940000Y0010850000
X0017710000Y0010410000
X0017710000Y0009940000
X0016770000Y0009320000
X0017312500Y0008902500
X0017160000Y0008830000
X0017172500Y0008610000
X0017720000Y0008490000
X0017402500Y0008472500
X0016581450Y0008280000
X0017402500Y0007972500
X0017630000Y0007530000
X0017402500Y0007517500
X0017156250Y0007296250
X0017390000Y0007110000
X0016760000Y0007110000
X0016650000Y0007090000
X0016540000Y0007090000
X0016760000Y0006920000
X0016650000Y0006770000
X0016540000Y0006690000
X0016720000Y0005940000
X0017252500Y0005572500
X0016990000Y0005460000
X0017020000Y0005240000
X0017547500Y0005110000
X0017200000Y0005100000
X0017252500Y0004607500
X0016640000Y0004340000
X0017547500Y0004160000
X0017252500Y0004132500
X0016912500Y0004120000
X0017100000Y0003810000
X0016650000Y0003710000
X0016560000Y0003700000
X0016650000Y0003510000
X0016560000Y0003430000
X0017390000Y0000620000
X0018620000Y0000390000
X0018250000Y0000620000
X0019030000Y0000790000
X0019030000Y0003180000
X0017820000Y0010020000
X0017930000Y0010100000
X0018037020Y0010177020
X0018102500Y0010257500
X0017930000Y0010400000
X0017820000Y0010410000
X0018037020Y0010412980
X0018102500Y0010477500
X0018463750Y0010606250
X0019007500Y0010850000
X0018050000Y0011030000
X0017880000Y0011620000
X0019007500Y0011810000
X0018490000Y0011930000
X0018480000Y0012170000
X0017950000Y0012690000
X0018250000Y0012690000
X0019440000Y0006920000
X0019340000Y0006770000
X0019220000Y0006690000
X0019120000Y0006580000
X0019050000Y0006490000
X0019440000Y0003510000
X0019340000Y0003430000
X0019220000Y0003350000
X0019120000Y0003280000
X0019840000Y0001250000
X0019080000Y0001250000
T02
X0011924000Y0000676000
X0012178000Y0000676000
X0012432000Y0000676000
X0012686000Y0000676000
X0012940000Y0000676000
X0013194000Y0000676000
X0013448000Y0000676000
X0013702000Y0000676000
X0013956000Y0000676000
X0014210000Y0000676000
X0014464000Y0000676000
X0014718000Y0000676000
X0014972000Y0000676000
X0015226000Y0000676000
X0015480000Y0000676000
X0015734000Y0000676000
X0015988000Y0000676000
X0016242000Y0000676000
X0016496000Y0000676000
X0016750000Y0000676000
X0016750000Y0000930000
X0016496000Y0000930000
X0016242000Y0000930000
X0015988000Y0000930000
X0015734000Y0000930000
X0015480000Y0000930000
X0015226000Y0000930000
X0014972000Y0000930000
X0014718000Y0000930000
X0014464000Y0000930000
X0014210000Y0000930000
X0013956000Y0000930000
X0013702000Y0000930000
X0013448000Y0000930000
X0013194000Y0000930000
X0012940000Y0000930000
X0012686000Y0000930000
X0012432000Y0000930000
X0012178000Y0000930000
X0011924000Y0000930000
X0018376000Y0014030000
X0018122000Y0014030000
X0017868000Y0014030000
X0017614000Y0014030000
X0017360000Y0014030000
X0017106000Y0014030000
X0016852000Y0014030000
X0016598000Y0014030000
X0016344000Y0014030000
X0016090000Y0014030000
X0015836000Y0014030000
X0015582000Y0014030000
X0015328000Y0014030000
X0015074000Y0014030000
X0014820000Y0014030000
X0014566000Y0014030000
X0014312000Y0014030000
X0014058000Y0014030000
X0013804000Y0014030000
X0013550000Y0014030000
X0012346000Y0014030000
X0012092000Y0014030000
X0011838000Y0014030000
X0011584000Y0014030000
X0011330000Y0014030000
X0011076000Y0014030000
X0010822000Y0014030000
X0010568000Y0014030000
X0010314000Y0014030000
X0010060000Y0014030000
X0009806000Y0014030000
X0009552000Y0014030000
X0009298000Y0014030000
X0009044000Y0014030000
X0008790000Y0014030000
X0008536000Y0014030000
X0008282000Y0014030000
X0008028000Y0014030000
X0007774000Y0014030000
X0007520000Y0014030000
X0006316000Y0014030000
X0006062000Y0014030000
X0005808000Y0014030000
X0005554000Y0014030000
X0005300000Y0014030000
X0005046000Y0014030000
X0004792000Y0014030000
X0004538000Y0014030000
X0004284000Y0014030000
X0004030000Y0014030000
X0003776000Y0014030000
X0003522000Y0014030000
X0003268000Y0014030000
X0003014000Y0014030000
X0002760000Y0014030000
X0002506000Y0014030000
X0002252000Y0014030000
X0001998000Y0014030000
X0001744000Y0014030000
X0001490000Y0014030000
X0001490000Y0014284000
X0001744000Y0014284000
X0001998000Y0014284000
X0002252000Y0014284000
X0002506000Y0014284000
X0002760000Y0014284000
X0003014000Y0014284000
X0003268000Y0014284000
X0003522000Y0014284000
X0003776000Y0014284000
X0004030000Y0014284000
X0004284000Y0014284000
X0004538000Y0014284000
X0004792000Y0014284000
X0005046000Y0014284000
X0005300000Y0014284000
X0005554000Y0014284000
X0005808000Y0014284000
X0006062000Y0014284000
X0006316000Y0014284000
X0007520000Y0014284000
X0007774000Y0014284000
X0008028000Y0014284000
X0008282000Y0014284000
X0008536000Y0014284000
X0008790000Y0014284000
X0009044000Y0014284000
X0009298000Y0014284000
X0009552000Y0014284000
X0009806000Y0014284000
X0010060000Y0014284000
X0010314000Y0014284000
X0010568000Y0014284000
X0010822000Y0014284000
X0011076000Y0014284000
X0011330000Y0014284000
X0011584000Y0014284000
X0011838000Y0014284000
X0012092000Y0014284000
X0012346000Y0014284000
X0013550000Y0014284000
X0013804000Y0014284000
X0014058000Y0014284000
X0014312000Y0014284000
X0014566000Y0014284000
X0014820000Y0014284000
X0015074000Y0014284000
X0015328000Y0014284000
X0015582000Y0014284000
X0015836000Y0014284000
X0016090000Y0014284000
X0016344000Y0014284000
X0016598000Y0014284000
X0016852000Y0014284000
X0017106000Y0014284000
X0017360000Y0014284000
X0017614000Y0014284000
X0017868000Y0014284000
X0018122000Y0014284000
X0018376000Y0014284000
T03
X0000500000Y0000500000
X0000500000Y0014500000
X0020500000Y0014500000
X0020500000Y0000500000
M30
